<?xml version="1.0" standalone="no"?>
<!DOCTYPE svg PUBLIC "-//W3C//DTD SVG 1.1//EN" "http://www.w3.org/Graphics/SVG/1.1/DTD/svg11.dtd" >
<svg xmlns="http://www.w3.org/2000/svg">
<metadata></metadata>
<defs>
<font id="m_1pregular" horiz-adv-x="1269" >
<font-face units-per-em="2048" ascent="1761" descent="-287" />
<missing-glyph horiz-adv-x="593" />
<glyph horiz-adv-x="2048" />
<glyph horiz-adv-x="2048" />
<glyph unicode="&#xd;" horiz-adv-x="2048" />
<glyph unicode=" "  horiz-adv-x="593" />
<glyph unicode="&#x09;" horiz-adv-x="593" />
<glyph unicode="&#xa0;" horiz-adv-x="593" />
<glyph unicode="&#x22;" horiz-adv-x="819" d="M143 1577h164l-20 -506h-123zM512 1577h164l-21 -506h-123z" />
<glyph unicode="%" horiz-adv-x="1732" d="M82 1122.5q0 186.5 90 290t254 103.5t254 -103.5t90 -290t-90 -288.5t-254 -102.5t-254 102t-90 289zM238 1122q0 -268 188 -268t188 268q0 270 -188 270t-188 -270zM360 0l846 1495h166l-846 -1495h-166zM963 372.5q0 186.5 90 289t253.5 102.5t254 -102.5t90.5 -289 t-90 -288.5q-90 -104 -254 -104t-254 103t-90 289.5zM1118 373q0 -270 188.5 -270.5t188.5 270.5q0 268 -188.5 268t-188.5 -268z" />
<glyph unicode="-" horiz-adv-x="933" d="M164 528v131h606v-131h-606z" />
<glyph unicode="." horiz-adv-x="581" d="M195 0v287h192v-287h-192z" />
<glyph unicode="/" horiz-adv-x="1038" d="M72 -82l704 1577h160l-705 -1577h-159z" />
<glyph unicode="0" d="M96.5 747.5q0.5 411.5 141.5 589.5t397 178.5t397.5 -178t141.5 -590t-141.5 -589.5t-397.5 -178t-397.5 178t-141 589.5zM260 747.5q0 -333.5 94 -483.5q92 -152 280.5 -151.5t282 151t93.5 484t-93.5 484t-282 150.5t-281.5 -150.5t-93 -484z" />
<glyph unicode="1" d="M168 1059l471 436h164v-1495h-164v1298h-4l-404 -372z" />
<glyph unicode="2" d="M150 1366q209 150 475 150q219 0 339.5 -112t120.5 -312.5t-145 -405.5t-545 -545v-4h697v-137h-922v137q436 360 592 562t156 380q0 145 -80 221t-234 76q-203 0 -405 -141z" />
<glyph unicode="3" d="M170 86l49 133q172 -102 340 -102q180 0 274.5 88t94.5 260q0 145 -97.5 216t-310.5 71h-149v127l489 475v4h-686v137h897v-137l-489 -481v-5h61q217 0 333 -104t116 -303q0 -233 -138.5 -359t-394.5 -126q-221 0 -389 106z" />
<glyph unicode="4" d="M31 348v133l717 1014h161v-1014h254v-133h-254v-348h-161v348h-717zM199 481h549v774h-5l-544 -770v-4z" />
<glyph unicode="5" d="M174 78l41 135q172 -96 344 -96q387 0 387 375q0 158 -84 240.5t-241 82.5q-162 0 -269 -94h-143l45 774h795v-137h-648l-28 -484h4q121 72 272 72q219 0 340 -118.5t121 -335.5q0 -250 -140.5 -381t-410.5 -131q-209 0 -385 98z" />
<glyph unicode="6" d="M113 559q0 416 201.5 670t555.5 287l29 -138q-471 -53 -598 -530l2 -2q141 158 373 158q227 0 361 -132.5t134 -359.5q0 -244 -145 -388t-385 -144q-248 0 -388 149.5t-140 429.5zM279 512q0 -190 96 -292.5t266 -102.5q174 0 270.5 102.5t96.5 292.5q0 168 -99.5 266.5 t-267.5 98.5q-158 0 -260 -102.5t-102 -262.5z" />
<glyph unicode="7" d="M160 1358v137h962v-137q-354 -582 -592 -1358h-172q236 741 607 1354v4h-805z" />
<glyph unicode="8" d="M96 403q0 131 88 233.5t252 154.5v4q-137 51 -211.5 145t-74.5 217q0 162 130 260.5t355 98.5t355 -98.5t130 -260.5q0 -248 -286 -350v-4q340 -100 340 -400q0 -195 -143.5 -309t-395.5 -114t-395.5 114.5t-143.5 308.5zM252 410q0 -139 102.5 -219t280.5 -80 t278.5 80.5t100.5 218.5q0 247 -385 321q-186 -37 -281.5 -121t-95.5 -200zM307 1143q0 -102 86 -177t242 -106q158 33 245 107.5t87 175.5q0 113 -87 177t-245 64q-156 0 -242 -64.5t-86 -176.5z" />
<glyph unicode="9" d="M98 993q0 238 145.5 380.5t385.5 142.5q250 0 389 -148.5t139 -421.5q0 -428 -206 -680t-572 -286l-29 137q250 27 401.5 159t217.5 373l-2 2q-143 -160 -373 -159q-227 0 -361.5 134t-134.5 367zM262 993q0 -176 99.5 -275.5t267.5 -99.5q158 0 260 104.5t102 270.5 q0 182 -96 283.5t-266 101.5q-174 0 -270.5 -100t-96.5 -285z" />
<glyph unicode=":" horiz-adv-x="745" d="M276 0v287h193v-287h-193zM276 793v286h193v-286h-193z" />
<glyph unicode="&#x3c;" horiz-adv-x="1366" d="M133 510v168l1038 475v-143l-935 -414v-4l935 -414v-143z" />
<glyph unicode="=" horiz-adv-x="1544" d="M184 293v131h1176v-131h-1176zM184 764v131h1176v-131h-1176z" />
<glyph unicode="&#x3e;" horiz-adv-x="1366" d="M195 35v143l935 414v4l-935 414v143l1038 -475v-168z" />
<glyph unicode="?" horiz-adv-x="1251" d="M133 1444q242 72 488 72q240 0 368.5 -89.5t128.5 -244.5q0 -74 -19.5 -131.5t-63.5 -104.5t-76.5 -73.5t-94.5 -67.5q-66 -45 -98.5 -69.5t-76.5 -73t-63.5 -106.5t-19.5 -132h-164q0 90 22.5 160.5t74 127t87.5 85t105 75.5q76 51 112 81t70.5 87t34.5 127 q0 209 -348 209q-211 0 -434 -71zM436 0v252h178v-252h-178z" />
<glyph unicode="A" horiz-adv-x="1421" d="M72 0l546 1495h185l547 -1495h-176l-150 436h-631l-151 -436h-170zM438 567h541l-268 781h-4z" />
<glyph unicode="B" horiz-adv-x="1224" d="M174 12v1471q180 33 361 33q540 0 540 -362q0 -126 -83 -217t-226 -122v-4q180 -27 278.5 -127t98.5 -254q0 -450 -585 -450h-3q-190 0 -381 32zM338 131q100 -18 217 -18h3q423 0 423 331q0 152 -120 223.5t-388 71.5h-135v-608zM338 870h135q446 0 447 263 q0 127 -92 188t-293 61q-104 0 -197 -18v-494z" />
<glyph unicode="C" horiz-adv-x="1423" d="M82 748q0 354 200.5 561t542.5 207q264 0 465 -132l-55 -122q-180 116 -395 116q-270 0 -431 -171t-161 -459.5t165 -459.5t427 -171q213 0 395 116l55 -122q-201 -131 -465 -131q-338 0 -540.5 208.5t-202.5 559.5z" />
<glyph unicode="D" horiz-adv-x="1396" d="M174 12v1471q184 33 363 33q375 0 576.5 -194t201.5 -554q0 -387 -201 -587.5t-577 -200.5q-182 0 -363 32zM338 135q92 -18 199 -18q620 0 620 649q0 305 -157.5 458.5t-462.5 153.5q-106 0 -199 -18v-1225z" />
<glyph unicode="E" horiz-adv-x="1202" d="M174 0v1495h875v-137h-711v-488h670v-131h-670v-602h711v-137h-875z" />
<glyph unicode="F" horiz-adv-x="1171" d="M174 0v1495h854v-137h-690v-508h649v-131h-649v-719h-164z" />
<glyph unicode="G" horiz-adv-x="1525" d="M82 747.5q0 350.5 209 559.5t563 209q260 0 463 -123l-55 -121q-185 110 -396 110q-289 0 -453.5 -172t-164.5 -462q0 -293 171 -464t462 -171q182 0 333 67v559h-518v131h676v-778q-229 -112 -501 -112h-5q-356 0 -570 208.5t-214 559z" />
<glyph unicode="H" horiz-adv-x="1454" d="M174 0v1495h164v-625h778v625h164v-1495h-164v739h-778v-739h-164z" />
<glyph unicode="I" horiz-adv-x="647" d="M236 0v1495h176v-1495h-176z" />
<glyph unicode="J" horiz-adv-x="1079" d="M51 55l41 138q145 -76 281 -76q383 0 383 456v922h170v-948q0 -295 -136.5 -431t-416.5 -136q-174 0 -322 75z" />
<glyph unicode="K" horiz-adv-x="1296" d="M174 0v1495h164v-666h4l664 666h198l-719 -717l740 -778h-197l-686 729h-4v-729h-164z" />
<glyph unicode="L" horiz-adv-x="1198" d="M174 0v1495h170v-1356h731v-139h-901z" />
<glyph unicode="M" horiz-adv-x="1753" d="M174 0v1495h166l532 -901h5l530 901h172v-1495h-164v1221h-4l-461 -777h-153l-461 777h-4v-1221h-158z" />
<glyph unicode="N" horiz-adv-x="1462" d="M174 0v1495h170l778 -1229h4v1229h162v-1495h-170l-778 1229h-4v-1229h-162z" />
<glyph unicode="O" horiz-adv-x="1626" d="M82 747.5q0 348.5 200.5 558.5t530.5 210t530.5 -210t200.5 -558.5t-201 -557.5q-201 -211 -529 -211l-2 1q-330 0 -530 209.5t-200 558zM250 747.5q0 -288.5 156 -458.5q154 -172 407.5 -172t408 171t154.5 459.5t-154.5 459.5t-408.5 171t-408.5 -171t-154.5 -459.5z " />
<glyph unicode="P" horiz-adv-x="1228" d="M174 0v1483q213 33 416 33q279 0 423 -118t144 -337q0 -238 -145.5 -360.5t-421.5 -122.5q-135 0 -252 12v-590h-164zM338 725q119 -16 240 -16q203 0 310 88t107 251.5t-105.5 248.5t-311.5 85q-113 0 -240 -20v-637z" />
<glyph unicode="Q" horiz-adv-x="1607" d="M82 747.5q0 348.5 200.5 558.5t530.5 210t529.5 -210t199.5 -558q0 -244 -109.5 -423.5t-304.5 -265.5v-4q154 -43 281 -137t209 -225h-195q-109 162 -241.5 224.5t-368.5 62.5q-330 0 -530.5 209.5t-200.5 558zM248 747.5q0 -288.5 154.5 -459.5t410.5 -171 q254 0 408.5 171t154.5 459.5t-154.5 459.5t-408.5 171q-256 0 -410.5 -171t-154.5 -459.5z" />
<glyph unicode="R" d="M174 0v1485q178 31 383 31q287 0 433.5 -105.5t146.5 -300.5q0 -156 -84 -260.5t-238 -142.5v-5q92 -49 182 -266l181 -436h-170l-177 432q-61 147 -115 183t-214 36h-164v-651h-164zM338 782h164q244 0 358.5 79t114.5 235q0 286 -429 286h-3q-109 0 -205 -18v-582z" />
<glyph unicode="S" horiz-adv-x="1173" d="M123 109l49 135q178 -127 401 -127q152 0 233 69.5t81 202.5q0 123 -68.5 195.5t-240.5 126.5q-449 133 -449 436q0 168 122 268.5t337 100.5q231 0 430 -97l-41 -127q-178 90 -389 90q-141 0 -219 -62.5t-78 -172.5q0 -199 291 -287q254 -74 361.5 -184.5t107.5 -286.5 q0 -199 -124 -304t-354 -105q-254 0 -450 129z" />
<glyph unicode="T" horiz-adv-x="1339" d="M123 1356v139h1094v-139h-465v-1356h-164v1356h-465z" />
<glyph unicode="U" horiz-adv-x="1400" d="M154 588v907h168v-915q-1 -461 380 -461q383 0 383 461v915h162v-907q0 -299 -141 -453.5t-405.5 -154.5t-405.5 154.5t-141 453.5z" />
<glyph unicode="V" horiz-adv-x="1421" d="M72 1495h176l463 -1333h4l463 1333h172l-547 -1495h-185z" />
<glyph unicode="W" horiz-adv-x="1953" d="M92 1495h168l301 -1319h4l307 1319h213l310 -1319h4l301 1319h162l-369 -1495h-207l-307 1319h-4l-307 -1319h-207z" />
<glyph unicode="X" horiz-adv-x="1331" d="M92 0l469 758l-459 737h191l373 -623h4l374 623h185l-459 -737l469 -758h-192l-381 643h-4l-383 -643h-187z" />
<glyph unicode="Y" horiz-adv-x="1372" d="M61 1495h193l432 -725h4l434 725h187l-539 -862v-633h-172v633z" />
<glyph unicode="Z" horiz-adv-x="1302" d="M154 0v137l804 1217v4h-804v137h995v-137l-805 -1217v-4h805v-137h-995z" />
<glyph unicode="_" horiz-adv-x="1191" d="M-4 -164h1200v-123h-1200v123z" />
<glyph unicode="a" horiz-adv-x="1122" d="M102 287q0 178 155 283.5t441 105.5h111v10q0 156 -58.5 216.5t-207.5 60.5q-193 0 -359 -95l-28 121q176 96 387 96q223 0 319 -92t96 -303v-403q0 -145 31 -287h-143q-20 90 -23 188h-4q-55 -98 -158.5 -153t-234.5 -55q-147 0 -235.5 82.5t-88.5 224.5zM250 293 q0 -92 57.5 -144.5t153.5 -52.5q141 0 244.5 101.5t103.5 248.5v115h-111q-215 0 -331.5 -72.5t-116.5 -195.5z" />
<glyph unicode="b" horiz-adv-x="1183" d="M164 0v1536h149v-645h4q112 194 343 194h2q201 0 315.5 -142t114.5 -411q0 -264 -116.5 -408t-313.5 -144q-236 0 -349 200h-4l-2 -180h-143zM313 518q0 -199 88 -307.5t228 -108.5q145 0 230 111.5t85 318.5q0 209 -83 320t-232 111q-139 0 -227.5 -111t-88.5 -305v-29z " />
<glyph unicode="c" horiz-adv-x="1067" d="M82 532q0 260 141.5 406.5t390.5 146.5q166 0 320 -71l-39 -125q-137 72 -274 72q-180 0 -281.5 -112t-101.5 -317q0 -197 106.5 -313.5t276.5 -116.5q143 0 274 70l39 -121q-152 -71 -315 -71h-5q-238 0 -385 150.5t-147 401.5z" />
<glyph unicode="d" horiz-adv-x="1183" d="M92 532q0 268 115 410.5t315 142.5q231 0 344 -194h4v645h150v-1536h-143l-3 180h-4q-112 -200 -346 -200h-2q-197 0 -313.5 144t-116.5 408zM240 532q0 -207 85 -318.5t230 -111.5q139 0 227 108.5t88 307.5v29q0 195 -88 305.5t-227 110.5q-150 0 -232.5 -111 t-82.5 -320z" />
<glyph unicode="e" horiz-adv-x="1128" d="M82 532q0 258 132 405.5t359 147.5q221 0 342 -139t121 -403q0 -47 -2 -68h-801q4 -174 106.5 -274.5t266.5 -100.5q160 0 316 82l41 -116q-172 -86 -369 -86q-229 0 -370.5 149.5t-141.5 402.5zM233 594h658q-2 178 -86 274.5t-232 96.5q-154 0 -244 -97.5t-96 -273.5z " />
<glyph unicode="f" horiz-adv-x="1067" d="M113 901v123h278v137q0 354 342 355q92 0 191 -31l-31 -123q-76 31 -145 31q-111 0 -157 -52.5t-46 -179.5v-137h366v-123h-366v-901h-154v901h-278z" />
<glyph unicode="g" horiz-adv-x="1175" d="M92 553q0 256 112.5 394t311.5 138q240 0 354 -198h4l5 178h143v-977q0 -559 -500 -559q-172 0 -329 65l32 121q145 -63 297 -63q180 0 264 100.5t84 329.5v131h-4q-111 -193 -350 -193q-186 0 -305 144.5t-119 388.5zM240 553q0 -190 86 -300t225 -110q141 0 230 106.5 t89 293.5v20q0 184 -90 292t-229 108q-145 0 -228 -105.5t-83 -304.5z" />
<glyph unicode="h" horiz-adv-x="1173" d="M164 0v1536h149v-653h4q134 202 357 202h2q180 0 267 -111.5t87 -352.5v-621h-147v608q0 199 -57.5 276t-198.5 77q-123 0 -218.5 -120t-95.5 -272v-569h-149z" />
<glyph unicode="i" horiz-adv-x="630" d="M236 0v1065h159v-1065h-159zM236 1311v225h159v-225h-159z" />
<glyph unicode="j" horiz-adv-x="710" d="M-51 -346q223 0 294.5 68.5t71.5 289.5v1053h160v-1045q0 -287 -108.5 -389t-411.5 -102zM315 1311v225h160v-225h-160z" />
<glyph unicode="k" horiz-adv-x="1148" d="M164 0v1536h149v-920h4l535 449h195l-607 -506l617 -559h-193l-547 502h-4v-502h-149z" />
<glyph unicode="l" horiz-adv-x="630" d="M236 0v1536h159v-1536h-159z" />
<glyph unicode="m" horiz-adv-x="1648" d="M154 0v1065h143l2 -176h4q112 196 279 196h2q205 0 286 -204h4q108 204 308 204h2q166 0 243.5 -97t77.5 -312v-676h-147v635q0 186 -47 257t-160 71q-98 0 -172 -98.5t-74 -239.5v-625h-147v635q0 184 -48 256t-161 72q-92 0 -169 -107.5t-77 -257.5v-598h-149z" />
<glyph unicode="n" horiz-adv-x="1163" d="M154 0v1065h143l2 -191h4q61 98 156.5 154.5t206.5 56.5q180 0 267 -111.5t87 -352.5v-621h-148v608q0 199 -57 276t-197 77q-119 0 -217 -118t-98 -274v-569h-149z" />
<glyph unicode="o" horiz-adv-x="1167" d="M82 532.5q0 253.5 137 403t364.5 149.5t364.5 -149.5t137 -403t-137 -403.5t-363 -150l-1 1q-228 0 -365 149.5t-137 403zM236 532.5q0 -202.5 93 -316.5t254.5 -114t255 114t93.5 316.5t-92 317.5q-94 113 -256 113t-255 -114t-93 -316.5z" />
<glyph unicode="p" horiz-adv-x="1173" d="M154 -451v1516h143l2 -180h4q112 200 346 200h2q201 0 315.5 -142t114.5 -411q0 -262 -117.5 -407t-312.5 -145q-231 0 -344 186h-4v-617h-149zM303 518q0 -199 88 -307.5t227 -108.5q145 0 230.5 111.5t85.5 318.5q0 209 -83 320t-233 111q-141 0 -228 -111t-87 -305 v-29z" />
<glyph unicode="q" horiz-adv-x="1173" d="M92 532q0 268 115 410.5t315 142.5q236 0 348 -200h4l3 180h143v-1516h-150v617h-4q-113 -186 -344 -186q-195 0 -312.5 145t-117.5 407zM240 532q0 -207 85 -318.5t230 -111.5q139 0 227 108.5t88 307.5v29q0 195 -87 305.5t-228 110.5q-150 0 -232.5 -111t-82.5 -320z " />
<glyph unicode="r" horiz-adv-x="929" d="M154 0v1065h147l2 -227h4q179 247 507 247h3v-129q-227 0 -368.5 -124.5t-141.5 -323.5v-508h-153z" />
<glyph unicode="s" horiz-adv-x="1017" d="M113 82l34 121q168 -100 359 -101q119 0 182.5 46.5t63.5 132.5q0 82 -56.5 127t-197.5 69q-203 35 -294 112t-91 210q0 131 103.5 208.5t289.5 77.5q197 0 362 -81l-34 -121q-158 80 -328 80q-119 0 -180.5 -43t-61.5 -121q0 -74 53.5 -117t196.5 -68 q209 -35 300 -114.5t91 -219t-105.5 -220t-293.5 -80.5q-219 0 -393 102z" />
<glyph unicode="t" horiz-adv-x="1048" d="M102 901v123h236v389h154v-389h403v-123h-403v-559q0 -143 38.5 -191.5t145.5 -48.5q94 0 180 35l25 -121q-101 -36 -220 -36h-6q-174 0 -245.5 74.5t-71.5 258.5v588h-236z" />
<glyph unicode="u" horiz-adv-x="1144" d="M143 389v676h148v-662q0 -164 54 -229t181 -65q119 0 216.5 114.5t97.5 272.5v569h151v-1065h-143l-4 190h-4q-61 -98 -156.5 -154t-204.5 -56q-172 0 -254 97t-82 312z" />
<glyph unicode="v" horiz-adv-x="1138" d="M72 1065h168l329 -973h4l332 973h162l-391 -1065h-213z" />
<glyph unicode="w" horiz-adv-x="1658" d="M92 1065h168l236 -930h4l227 930h211l227 -930h4l236 930h162l-303 -1065h-205l-228 915h-4l-227 -915h-205z" />
<glyph unicode="x" horiz-adv-x="1134" d="M102 0l375 541l-364 524h178l276 -424h4l279 424h172l-365 -524l375 -541h-178l-287 442h-4l-289 -442h-172z" />
<glyph unicode="y" horiz-adv-x="1140" d="M72 1065h166l319 -877h4l348 877h160l-635 -1516h-160l201 457z" />
<glyph unicode="z" horiz-adv-x="1118" d="M154 0v123l622 815v4h-622v123h811v-123l-623 -815v-4h623v-123h-811z" />
<glyph unicode="&#xad;" horiz-adv-x="933" d="M164 528v131h606v-131h-606z" />
<glyph unicode="&#x2000;" horiz-adv-x="788" />
<glyph unicode="&#x2001;" horiz-adv-x="1577" />
<glyph unicode="&#x2002;" horiz-adv-x="788" />
<glyph unicode="&#x2003;" horiz-adv-x="1577" />
<glyph unicode="&#x2004;" horiz-adv-x="525" />
<glyph unicode="&#x2005;" horiz-adv-x="394" />
<glyph unicode="&#x2006;" horiz-adv-x="262" />
<glyph unicode="&#x2007;" horiz-adv-x="262" />
<glyph unicode="&#x2008;" horiz-adv-x="197" />
<glyph unicode="&#x2009;" horiz-adv-x="315" />
<glyph unicode="&#x200a;" horiz-adv-x="87" />
<glyph unicode="&#x2010;" horiz-adv-x="933" d="M164 528v131h606v-131h-606z" />
<glyph unicode="&#x2011;" horiz-adv-x="933" d="M164 528v131h606v-131h-606z" />
<glyph unicode="&#x2012;" horiz-adv-x="933" d="M164 528v131h606v-131h-606z" />
<glyph unicode="&#x2013;" horiz-adv-x="1351" d="M164 528v131h1024v-131h-1024z" />
<glyph unicode="&#x2014;" horiz-adv-x="2375" d="M164 528v131h2048v-131h-2048z" />
<glyph unicode="&#x202f;" horiz-adv-x="315" />
<glyph unicode="&#x205f;" horiz-adv-x="394" />
<glyph unicode="&#xe000;" horiz-adv-x="1064" d="M0 0v1065h1065v-1065h-1065z" />
</font>
</defs>
</svg>
