<?xml version="1.0" encoding="utf-8"?>
<!-- Generator: Adobe Illustrator 17.0.0, SVG Export Plug-In . SVG Version: 6.00 Build 0)  -->
<!DOCTYPE svg PUBLIC "-//W3C//DTD SVG 1.1//EN" "http://www.w3.org/Graphics/SVG/1.1/DTD/svg11.dtd">
<svg version="1.1" id="レイヤー_1" xmlns="http://www.w3.org/2000/svg" xmlns:xlink="http://www.w3.org/1999/xlink" x="0px"
	 y="0px" width="360px" height="360px" viewBox="0 0 360 360" enable-background="new 0 0 360 360" xml:space="preserve">
<path d="M356.733,22.375c0-12.887-11.926-23.851-37.148-21.754L9.393,28.928c-3.46,0.316-6.335,4.647-6.406,9.629l-3.138,220.655
	c-0.073,5.168,2.731,9.67,6.25,10.003l155.956,14.766c0.367,4.715,0.76,16.95-4.349,22.494c-4,4.34-40.333-3.327-47,14.146
	c-6.201,16.252,17,29.694,49.152,34.955c40.651,6.651,80.685,6.152,84.804-9.209c5.835-21.758-34.995-26.885-37.289-35.885
	c-1.849-7.254-2.228-14.441-2.307-22.428l117.982,11.171c22.785,2.051,37.105-8.72,37.105-23.21L356.733,22.375z M19.759,242.64
	l2.378-188.023l278.791-19.736l2.296,228.566L19.759,242.64z"/>
<g>
	<polygon fill="#FFFFFF" points="22.136,54.617 19.759,242.64 303.223,263.447 300.927,34.881 	"/>
</g>
<g>
	<path d="M130.881,103.314c0,2.159-1.825,3.984-4.071,4.077c-2.238,0.092-4.047-1.573-4.047-3.718s1.809-3.97,4.047-4.075
		C129.056,99.491,130.881,101.155,130.881,103.314z"/>
	<path d="M168.927,101.636c0,2.218,1.933,3.936,4.324,3.838c2.399-0.099,4.35-1.989,4.35-4.22c0-2.232-1.951-3.949-4.35-3.836
		C170.859,97.529,168.927,99.418,168.927,101.636z"/>
	<path d="M270.985,126.223c-0.428-3.743-4.18-6.368-8.36-5.866c-4.157,0.499-6.679,6.055-6.552,9.264
		c0.082,2.062-4.281,8.976-7.736,8.394c-3.42-0.576-3.807-1.348-5.03-4.347c-1.213-2.973,1.394-9.943,3.643-12.615
		c1.198-1.423,3.223-1.534,4.693-2.945c2.882-2.767,2.812-7.045-0.156-9.535c-2.956-2.481-7.656-2.236-10.497,0.529
		c-2.83,2.754-0.646,5.867,0.154,9.469c0.786,3.537-2.192,11.54-5.567,13.785c-2.574,1.712-3.846,2.149-6.668,1.495
		c-4.101-0.951-9.786-8.194-9.145-12.05c0.285-1.717,2.05-2.414,2.05-4.282c0-3.652-3.209-6.497-7.148-6.354
		c-3.918,0.142-7.079,3.189-7.079,6.806c0,3.617,2.209,6.353,5.996,7.166c2.774,0.596,10.218,10.134,9.611,14.344
		c-0.497,3.446-2.105,5.024-2.105,8.758c0,3.804,2.714,10.041,0.797,13.106c-7.968,12.742-31.386,15.073-44.907,5.413
		c-2.969-2.121-4.771-5.926-1.956-10.529c7.205-11.78,23.12-16.581,23.055-41.743c-0.066-25.676-21.877-38.694-48.356-37.432
		c-25.705,1.973-45.246,16.628-45.303,40.65c-0.057,23.537,14.131,27.625,20.775,38.806c2.632,4.429,0.927,8.115-1.835,10.155
		c-12.296,9.083-32.572,6.597-39.188-5.047c-1.571-2.766,0.651-8.444,0.651-11.896c0-3.388-1.323-4.78-1.73-7.886
		c-0.497-3.79,5.648-12.752,7.969-13.426c3.195-0.927,5.073-3.561,5.073-6.902c0-3.341-2.685-5.952-5.983-5.832
		c-3.281,0.119-5.93,2.899-5.93,6.21c0,1.693,1.453,2.233,1.689,3.779c0.53,3.476-4.141,10.273-7.467,11.277
		c-2.269,0.684-3.286,0.337-5.335-1.1c-2.666-1.87-4.999-8.827-4.386-11.992c0.626-3.23,2.343-6.114,0.121-8.384
		c-2.215-2.262-5.845-2.177-8.106,0.177c-2.254,2.346-2.307,6.07-0.119,8.332c1.122,1.16,2.674,1.158,3.596,2.349
		c1.739,2.245,3.766,8.285,2.821,10.952c-0.95,2.682-1.25,3.374-3.888,3.98c-2.643,0.607-5.948-5.273-5.886-7.065
		c0.096-2.79-1.799-7.497-4.897-7.734c-3.083-0.236-5.824,2.176-6.135,5.385c-0.311,3.207,1.922,6.019,5,6.283
		c1.58,0.135,2.25,0.173,3.54,0.894c1.999,1.118,2.589,4.431,4.803,7.63c1.132,1.636,1.759,4.131,2.027,5.624
		c0.968,5.389,6.807,8.868,9.456,12.73c7.588,11.063,30.192,10.45,30.192,30.748c0,7.958-14.142,48.896,8.09,50.86
		c8.603,0.76,23.779,3.832,40.385,4.85c16.838,1.032,33.214-0.142,42.777,0.186c25.907,0.89,9.142-45.007,9.142-53.557
		c0-21.805,27.023-20.691,36.535-32.993c3.375-4.365,10.919-8.372,12.183-14.548c0.351-1.714,1.172-4.588,2.661-6.5
		c2.927-3.758,3.71-7.601,6.376-8.986c1.729-0.898,2.631-0.975,4.764-1.212C268.347,133.385,271.413,129.969,270.985,126.223z
		 M172.97,90.84c7.861-0.405,12.406,4.589,14.298,10.558c2.039,6.437,0.463,11.423-8.1,7.41c-7.618-3.571-20.213-0.057-20.213-6.172
		S165.195,91.241,172.97,90.84z M178.792,115.637l-0.917,0.031c-0.002,0-0.07-0.37-0.203-0.552
		c-0.133-0.181-0.344-0.309-0.638-0.459c-0.586-0.302-1.494-0.488-2.572-0.612c-2.155-0.252-4.975-0.188-7.488-0.291
		c-1.674-0.071-3.211-0.2-4.383-0.571c-0.667-0.214-1.229-0.504-1.608-0.957l0.709-0.55c0.267,0.331,0.834,0.618,1.633,0.811
		c0.797,0.196,1.807,0.309,2.92,0.374c2.232,0.132,4.872,0.081,7.143,0.233c1.521,0.105,2.874,0.291,3.878,0.728
		c0.572,0.251,1.046,0.515,1.311,1.013C178.718,115.099,178.792,115.637,178.792,115.637z M113.942,104.604
		c1.708-5.833,5.848-11.021,13.131-11.396c7.361-0.38,13.386,4.202,13.386,10.237c0,6.035-12.053,3.583-19.141,7.607
		C113.525,115.475,112.11,110.859,113.942,104.604z M138.488,113.057c-0.452,0.581-1.165,0.945-2.017,1.223
		c-0.854,0.276-1.865,0.461-2.956,0.607c-2.174,0.289-4.667,0.42-6.742,0.716c-1.377,0.193-2.572,0.47-3.322,0.869
		c-0.43,0.227-0.7,0.401-0.831,0.669c-0.071,0.145-0.109,0.411-0.11,0.411l-0.847,0.029c-0.002,0,0.119-0.703,0.335-1.02
		c0.216-0.318,0.516-0.535,0.867-0.746c0.704-0.422,1.625-0.668,2.679-0.873c2.11-0.406,4.773-0.533,7.122-0.804
		c1.567-0.179,2.994-0.418,3.968-0.808c0.559-0.221,0.955-0.485,1.167-0.764L138.488,113.057z M149.5,153.814v0.686
		c0,0,0.171,0,0.146,0s-0.146,0-0.146,0V153.814c-6,0.031-13.441-0.727-17.643-6.439c-1.626-2.211-17.05-23.319-17.05-23.319
		s11.705,13.126,34.829,14.36c23.914-2.158,36.647-16.464,36.647-16.464s-16.823,22.67-18.538,24.985
		C163.351,152.867,155.5,153.756,149.5,153.814z"/>
</g>
</svg>
