<?xml version="1.0" encoding="utf-8"?>
<!-- Generator: Adobe Illustrator 17.0.0, SVG Export Plug-In . SVG Version: 6.00 Build 0)  -->
<!DOCTYPE svg PUBLIC "-//W3C//DTD SVG 1.1//EN" "http://www.w3.org/Graphics/SVG/1.1/DTD/svg11.dtd">
<svg version="1.1" id="レイヤー_1" xmlns="http://www.w3.org/2000/svg" xmlns:xlink="http://www.w3.org/1999/xlink" x="0px"
	 y="0px" width="360px" height="360px" viewBox="0 0 360 360" enable-background="new 0 0 360 360" xml:space="preserve">
<path d="M359.593,102.136c-0.618-7.347-2.66-16.593-9.871-20.88c-7.251-4.31-18.056-5.796-20.877-7.432
	c-2.821-1.636-2.379-11.11-2.258-11.717c0.206-1.031,1.315-1.317,1.315-1.317l-0.19-8.087c0,0-6.538-3.289-8.092-6.771
	c-0.686-1.536-0.385-4.137-0.385-4.137l17.489,0.868c0,0,2.771-5.38-0.99-9.141c-3.762-3.762-14.553-4.485-14.553-4.485
	s0.241-2.564-0.188-3.108c-1.208-1.53-13.474-1.228-14.788-0.468c-0.74,0.427,0.042,3.36-0.413,3.416
	c-1.6,0.198-18.118,0.848-21.315,3.669c-3.197,2.821-2.198,9.492-2.198,9.492l26.147-0.061c0,0,0.513,2.535,0,4.008
	c-0.918,2.637-8.211,6.602-8.211,6.602l-0.007,8.015c0,0,1.54,0.178,1.548,0.982c0.081,7.499,1.063,12.695-3.888,14.286
	C293.912,77.142,179,77.482,141,77.559v-50.66L135.919,27H35v-0.101L0,30.009V360h106.473L141,333.007V96.525
	c35-0.004,140.408-0.03,145.925-0.187c6.583-0.188,15.317,2.633,20.207,3.385c4.89,0.752,14.9-0.188,19.038-0.94
	c4.138-0.752,12.281-4.106,14.127-1.693c2.445,3.197,2.143,15.952,3.289,17.093c1.002,0.997,15.684-0.118,16.286-1.671
	C360.179,111.723,360.006,107.052,359.593,102.136z"/>
</svg>
