<?xml version="1.0" encoding="utf-8"?>
<!-- Generator: Adobe Illustrator 17.0.0, SVG Export Plug-In . SVG Version: 6.00 Build 0)  -->
<!DOCTYPE svg PUBLIC "-//W3C//DTD SVG 1.1//EN" "http://www.w3.org/Graphics/SVG/1.1/DTD/svg11.dtd">
<svg version="1.1" id="レイヤー_1" xmlns="http://www.w3.org/2000/svg" xmlns:xlink="http://www.w3.org/1999/xlink" x="0px"
	 y="0px" width="16.397px" height="1200.201px" viewBox="0 0 16.397 1200.201" enable-background="new 0 0 16.397 1200.201"
	 xml:space="preserve">
<rect x="6.665" width="3" height="1194"/>
<path d="M16.397,1199l-0.009-0.161c0.003-0.015,0.007-0.068,0.007-0.082c0-0.03-0.008-0.079-0.02-0.108l-1.709-17.009
	c0-0.854-2.896-1.551-6.468-1.551s-6.468,0.81-6.468,1.665c0,0.044,0.012,0.248,0.027,0.248H1.73l-1.708,16.744
	c-0.013,0.031-0.023,0.002-0.023,0.034c0,0.017,0.004,0.08,0.008,0.097L0,1199h0.039c0.402,0,3.901,1.201,8.158,1.201
	s7.756-1.201,8.158-1.201H16.397z"/>
</svg>
