<?xml version="1.0" encoding="utf-8"?>
<!-- Generator: Adobe Illustrator 17.0.0, SVG Export Plug-In . SVG Version: 6.00 Build 0)  -->
<!DOCTYPE svg PUBLIC "-//W3C//DTD SVG 1.1//EN" "http://www.w3.org/Graphics/SVG/1.1/DTD/svg11.dtd">
<svg version="1.1" id="レイヤー_1" xmlns="http://www.w3.org/2000/svg" xmlns:xlink="http://www.w3.org/1999/xlink" x="0px"
	 y="0px" width="200px" height="100px" viewBox="0 0 200 100" enable-background="new 0 0 200 100" xml:space="preserve">
<radialGradient id="SVGID_1_" cx="100" cy="50" r="121.8553" gradientUnits="userSpaceOnUse">
	<stop  offset="0" style="stop-color:#FFFFFF"/>
	<stop  offset="0.4" style="stop-color:#F9F9F9"/>
	<stop  offset="0.9343" style="stop-color:#E8E8E8"/>
	<stop  offset="1" style="stop-color:#E6E6E6"/>
</radialGradient>
<rect fill="url(#SVGID_1_)" width="200" height="100"/>
<g>
	<path d="M69.973,38.711c-1.363-1.265-4.38-1.947-9.15-1.947H42.815v-7.592h20.15c4.283,0,7.593,0.292,9.928,0.973
		c2.142,0.584,3.991,1.752,5.451,3.504c1.168,1.363,1.947,3.018,2.433,4.867c0.487,1.947,0.682,4.769,0.682,8.468v30.663h-19.76
		c-4.575,0-7.69-0.195-9.345-0.487c-3.602-0.681-6.425-2.239-8.469-4.769c-1.947-2.337-2.92-5.549-2.92-9.345
		c0-2.823,0.584-5.451,1.557-7.593c1.168-2.336,2.628-3.991,4.575-5.256c2.336-1.46,6.424-2.142,12.265-2.142h12.459
		C71.823,43.091,71.141,39.976,69.973,38.711z M60.531,55.648c-2.531,0-4.672,0.292-6.23,0.973c-2.239,0.876-3.309,3.018-3.309,6.23
		c0,2.628,0.681,4.477,2.142,5.549c1.46,1.07,3.894,1.655,7.398,1.655h11.292V55.648H60.531z"/>
	<path d="M127.112,70.249c-0.098,6.424-0.195,10.513-0.39,12.069c-0.292,1.752-0.973,3.213-2.141,4.478
		c-1.46,1.655-3.407,2.726-5.841,3.31c-2.434,0.681-6.23,0.973-11.194,0.973H92.264v-7.593h16.743c2.823,0,4.671-0.097,5.646-0.389
		c1.07-0.292,1.752-0.876,2.141-1.752c0.39-0.875,0.584-2.823,0.584-5.646h-4.866c-4.964,0-8.371-0.194-10.221-0.486
		c-1.85-0.292-3.796-1.071-5.743-2.337c-6.327-3.699-9.539-10.123-9.539-19.37c0-7.301,2.044-13.336,6.23-18.203
		c2.044-2.336,4.477-3.991,7.203-4.77c2.92-0.973,6.911-1.362,12.071-1.362h14.601V70.249z M113.192,36.764
		c-4.088,0-7.009,0.292-8.663,0.974c-3.018,1.168-5.159,3.796-6.327,7.982c-0.876,2.823-1.265,5.451-1.265,7.787
		c0,3.893,1.168,7.495,3.504,10.707c1.071,1.46,2.337,2.434,3.992,3.018c1.655,0.584,3.991,0.876,7.106,0.876h5.84V36.764H113.192z"
		/>
	<path d="M132.86,36.764v-7.592h8.566V27.03c0-5.549,1.265-9.637,3.699-12.07c2.433-2.433,6.522-3.699,12.07-3.699h3.602v7.593
		h-2.434c-2.92,0-4.867,0.487-5.841,1.557c-1.07,0.973-1.557,3.017-1.557,6.035v2.726h9.053v7.592h-9.053v40.883h-9.539V36.764
		H132.86z"/>
</g>
</svg>
