<svg xmlns="http://www.w3.org/2000/svg" viewBox="0 0 1920 1080">
    <g fill="red">
        <path d="M435.62 559.47l10.69-10.9 15 11.58c-2.72 3.63-5.3 5.22-11.53 5.22h-32.72a234.17 234.17 0 0 1-10 33.15c27.5 12.72 33.88 28.84 32.24 38.15-.84 4.77-3.66 7.72-6.89 7.72a7.15 7.15 0 0 1-4.29-1.81c-.91-13.17-11.86-29.52-22.7-40-10.55 24.53-27.29 48.82-55.82 68.12l-2.94-3c37.81-31.33 52.36-68.12 60-102.41h-39.87l-.57-5.9H408c.84-3.41 1.4-6.59 2-10l7.36-41.78h-19.88c-7.83 15.66-16.58 30-25.53 40.19l-3.56-2c12.82-19.07 26.19-51.77 35.14-82.88l17.8 3.64c-.94 2.72-2.79 4.08-8.14 4.31-3.87 10.22-8.06 20.89-12.82 30.88h40.81l11.27-11.58 15.55 12.3c-2.49 3.64-5.53 5.23-11.76 5.23h-28.55l-7.33 41.55c-.6 3.41-1.2 6.81-2 10.22zm114.75 76.29L566 648c-2.48 3.63-5.3 5.22-11.76 5.22H459l-2.37 13.4s-2.1 4.08-11.09 4.08l34.31-194.6 12.06 6.13h71.25l11.27-11.58 15.82 12.26c-2.49 3.64-5.53 5.23-11.76 5.23h-90.41l-7.6 43.14h68l6.77-7 14.14 11.36c-1.7 1.81-5.67 3.4-10 4.31l-11.37 64.49c-.35.68-4.45 4.31-11.14 4.31l1.84-10.44h-70.05l-8.65 49h78.85zm-.84-98.55h-70.09l-9.73 55.18h70.09zM750.09 532.22c2.09-2.72 8.33-4.09 11.79-4.09 11.53 0 20.4 11.13 19.52 16.12-.68 3.86-3.51 6.82-14 8.86-11.47 2.27-42.33 13.85-67.35 25a37.05 37.05 0 0 1-.65 5c-5.17 29.3-9.4 40.2-15.85 40.2-3.23 0-5.25-3-4.16-9.09a45.48 45.48 0 0 1 1.3-4.77c3.37-10 6.2-18.16 7.45-26.56-23.14 10.9-48.06 25.43-51.79 46.55-2.68 15.21 12.15 21.34 38.9 21.34 25.59 0 44.47-1.13 49.42-5.68 14.17.69 21.57 3.18 21 6.59-.56 3.18-2 5-8.27 6.36-12 2.5-37.64 3-50.32 3-56.72 0-62.77-14.08-59.77-31.11 3.84-21.8 34.11-41.78 62-54.72.28-1.59.33-3.18.65-5 2-19.3-5.82-24.52-15-24.52-22.83 0-55.43 29.29-80.23 57.45-6.73 7.41-9.85 10.85-12.62 10.85-2.07 0-4.66-3.63-4-7.49 1-5.45 5.09-8 13.4-14.53 23-17.94 51.06-52.91 63.88-77.21-7.73.69-15.84.91-20.91.91-17.07 0-26.29-5.22-30-18.16l3.71-2.73c5.19 9.77 13.73 13.63 30.1 13.63A190.43 190.43 0 0 0 660 507c5.84-10.9 8.7-17.93 9.74-23.84 1-5.68-5.37-7.49-11.13-7.49a25.49 25.49 0 0 0-4.46.45l-.43-.22a13.78 13.78 0 0 1 13.2-8.18c11.76 0 20.83 6.13 20 11.13-.84 4.77-4.11 5-7.15 10.44q-4.61 8.52-9.11 16.35c14.81-1.59 35.13-5.68 45.38-8.85 6.08-1.82 10.86-4.09 13.78-8.86 13.6 0 20.78 1.14 19.82 6.59-.52 3-6 4.08-11.38 5.67-17.52 5.22-52.77 11.58-72.5 13.63a276.64 276.64 0 0 1-32.91 45.41l1.08.46c19.44-16.13 34-20.44 43.26-20.44 13.14 0 24.7 6.36 23.69 30.43 28.33-13 60.54-24.3 61.34-28.84.64-3.64-2.84-6.13-8.14-6.13a18.92 18.92 0 0 0-3.5.22zM831.19 590.12l-8.33 47.23c11.28-2.49 23.33-5.45 35.61-8.4l.28 3.63c-18.19 6.36-42.84 15.45-74.16 25.67a10 10 0 0 1-5.8 5.44l-3.16-16.12c3.08-.45 6.93-1.36 11.7-2.27l13.5-76.52 17.7 1.59c-.67 2.5-2.91 3.4-8.37 4.31l-12 68.35 13.84-3.18 17.38-98.55h-13.33l-1.48 8.4s-2.11 4.09-11.1 4.09l13.65-77.43 12.06 6.13h33l7.08-7.49 14.94 12c-1.93 1.82-6.17 3.64-10.94 4.54l-9.49 53.82c-.08.45-4.41 4.09-11.1 4.09l1.44-8.18H839.8l-7.57 42.92h7.15l10.14-10.45 14.41 11.13c-2.49 3.63-5.3 5.22-11.53 5.22zm-14.1-54.72h38l8.29-47h-38zm106.25 17.26l13.1 10.67c-1.43 1.59-5.17 3.18-8.75 3.86l-15.17 86.06c-1.68 9.54-5.15 16.12-20.23 17.94 1.76-10-6.23-10.45-16.94-11.13l.6-3.4h21.44c3.23 0 4.27-.69 4.79-3.64l15.5-87.87h-34.13l-18.06 102.4s-2.06 3.87-11 3.87l20.81-118.31 12.06 6.13h29.51zm27.92-90.38L967.93 475c-2.75 2.49-7.83 3.86-14.6 4.31 6.74 20.66 28.76 42.24 57.3 54.27l-1.13 2.5a16.89 16.89 0 0 0-12.32 8.4c-23.91-14.76-42.1-35.88-49-60.63-20.5 24.75-48 46.1-78.68 61.77l-2.32-3.86c27.91-17 53.63-40 71.48-64h-37.85l-.8-5.9h42.65zM878.7 614.87c19.44.91 24.61 9.54 23.57 15.44-.6 3.41-3.12 5.91-6.12 5.91a5.48 5.48 0 0 1-3.49-1.14c-1-7.26-8-14.53-15.36-17.48zm7-33.38c18.9 1.37 24.06 10 23 15.9-.52 3-3 5.45-5.8 5.45a7.42 7.42 0 0 1-3.49-1.14c-1.06-7-7.81-14.53-15.13-17.48zm71.17-59.72l14.41 11.13c-2.48 3.63-5.07 5.22-11.29 5.22h-60.61l-.57-5.9h48zM972.15 557c-1 2-3.6 3.41-7.44 2.95-5.32 8-21.29 33.15-31.61 47.23 16.56 21.12 19.75 38.38 17.86 49.05-1.28 7.27-4.76 11.35-8.22 11.35a4.31 4.31 0 0 1-3.6-1.81c1.06-13.85-2.45-39.74-12.16-57.91 9.38-16.57 23.92-45.41 28-55.63zm29.24.23c-1.09 2.27-3.63 3.63-7.47 3.18-5.52 7.72-22.41 32.92-33 47 17.49 21.12 21 38.83 19.17 49.5-1.24 7-4.69 10.9-8.15 10.9a4.6 4.6 0 0 1-3.6-1.82c.83-13.85-3.37-39.73-13.77-57.9 9.84-16.58 25.53-45.41 29.87-55.63zM1079.77 590.8c11.49-6.35 20.43-8.63 27.57-8.63 12.91 0 18.43 8 14.87 28.16-.32 1.82-2.43 11.13-2.83 13.4-2.72 15.44.74 20.66 19.42 20.66 16.83 0 20.1-.22 24.14-.91 2.85-.45 5.77-1.36 8.77-1.36 1.38 0 10.59 2.73 9.55 8.63-.8 4.54-12.37 4.77-30.13 4.77-24.9 0-46.67-2-41-34.52.32-1.81 2.3-10.44 2.66-12.48 3-17-1.78-20-11-20-10.84 0-42.06 13.63-78 55.41-6.35 7.27-8.34 10.67-12.49 10.67-4.84 0-6.27-3.63-5.67-7 1.84-10.44 11.36-14.76 22.69-24.07 27.67-22.25 109.6-92 109.92-93.78 0-.22-.15-.45-1.08-.45-1.38 0-58.75 10.22-71.86 16.57-4 2-6.07 4.32-8.6 4.32-6.46 0-13.93-8.63-12.45-17 .92-5.22 7.85-11.81 13.17-14.54l2.14 2.28c-3.06 3-5.23 6.13-5.71 8.85-.57 3.18 1.53 5.68 8.22 5.68 10.83 0 58.32-9.08 75.06-12.49 4.31-.91 7.77-6.13 10.54-6.13 5.3 0 14.89 8.4 14.21 12.26-.41 2.27-5.91 3.41-11.49 5-8.24 2.27-54.1 41.32-71.54 56.54zm48.44-100.8q-7.38.69-14 .69c-20.3 0-33.33-4.55-36.9-15.67l5.17-3.18c4 6.36 13.73 9.76 29 9.76 11.76 0 23.65-2 29.87-2 12.22 0 16.55 6.81 15.91 10.44-.76 4.32-9.82 3.41-18 4.32-12.77 1.81-29.53 7.95-43.87 13.4l-.66-4.09c8.86-3.18 25-9.54 33.41-12.94zM1241 655.75c76-2.27 113.15-17.94 119.27-52.68 5.25-29.75-14.52-44.51-38-44.51-21 0-42.74 5.68-69.22 22.48a92.81 92.81 0 0 0-13.75 10c-15.55 13.63-24.14 27-28.75 27-5.76 0-6.89-4.09-6.2-7.95 1.36-7.72 16.63-15.89 27.7-26.34 29.43-27 73.2-64.71 100.18-87 3.48-2.73 6.77-5.68 7.25-8.41.4-2.27-1.13-2.72-3.44-2.72-9 0-41.29 7.95-59.47 14.3-6.4 2.28-9.43 6.36-14.5 6.36-9.68 0-16.48-11.12-15.32-17.71.72-4.09 3.37-8.63 6.26-10.67l2.69.45a9.27 9.27 0 0 0-.63 2.27c-1.16 6.59 4.07 10.9 11.91 10.9 7.61 0 49.28-7.49 61-12.49 3.74-1.59 9.14-4.76 11-4.76 9.69 0 20.11 10.21 18.87 17.25-.8 4.54-6.68 3.86-14.52 9.09-20.11 13.39-60.35 45.41-80 66.53l.15.45c24.07-12.26 48.15-15.44 61.52-15.44 35 0 53 21.12 47.71 51.09-7.08 40.19-41.48 57.45-132.26 58.36zM1450.32 602.61c19.14 0 31.9 15.22 28.58 34.06s-21.46 34.06-40.59 34.06-31.91-15.21-28.59-34.06c3.41-19.3 21.92-34.06 40.6-34.06zm21.2 34.06c2.6-14.76-7.5-26.79-22.48-26.79s-29.33 12-31.94 26.79 7.5 26.8 22.49 26.8c15.41 0 29.41-12.47 31.93-26.8z"/>
    </g>
    <g fill="#f10040">
        <path d="M858.74 483.43l13-3.16.08 1.31c-6.34 2.23-15.11 5.39-26.72 9.09a3.56 3.56 0 0 1-1.89 1.85l-2.13-5.24c1.13-.23 2.66-.46 4.37-.85l4.73-26.82 6.79.54c-.28 1.16-1.28 1.54-3.7 1.93l-4.16 23.58c1.8-.46 3.84-.92 6-1.38l6.1-34.61h-5.56l-.62 3.54s-.7 1.31-3.75 1.31l4.72-26.89 4.09 2.08h12.21l2.41-2.55 5.07 4.09a8.22 8.22 0 0 1-3.72 1.54l-3.22 18.27a5.2 5.2 0 0 1-3.76 1.38l.49-2.77h-4.86l-2.57 14.57h3.14l3.6-4 4.81 4.24c-.93 1.23-1.8 1.77-3.92 1.77h-8zM856 447.67h13.9l2.81-16h-13.93zm11.84 22c3.22-.93 10.23-3.39 17.5-6 .4-1.85.79-3.63 1.13-5.55l6-34.15 6.92.7c-.37 1.23-1.23 1.69-3.86 1.93L890 458.07c-2.93 16.19-9.62 28.83-27.76 37.15l-.8-1.23c13.42-6.86 20-16.19 23.42-28.52-3.33 2-7.61 4.55-12.9 7.48a3.11 3.11 0 0 1-1.67 1.92zm9.72-31.6c6.07 3.77 7.47 8.25 6.93 11.33-.4 2.23-1.77 3.77-3.17 3.77a2.2 2.2 0 0 1-1.64-.92c1.1-4.47-.62-10.25-3.09-13.56zm36 42.16l-1.62 9.63c1.69.62 2.06.77 2 1.31-.3 1.7-2.14 2.39-7.31 2.39h-8.83c-4.54 0-5.16-1.39-4.2-6.78l11-62.59 7 .7c-.31 1.31-1.08 1.7-4 2.08l-6.3 35.76c10.65 2.62 13.34 7.79 12.83 10.64a2.2 2.2 0 0 1-2 2.08 2.82 2.82 0 0 1-1.26-.39c-.95-3.93-5.56-8.4-9.81-10.94l-4 22.74c-.57 3.23-.44 3.39 1.28 3.39h8.46a2.74 2.74 0 0 0 2.1-.85c.59-.69 2.36-5.4 3.73-9.17zm7.3-40.23a1.47 1.47 0 0 1-1.28.61 3.28 3.28 0 0 1-.85-.08 133.89 133.89 0 0 1-12.87 13.11l-.85-.54a165.44 165.44 0 0 0 10.88-16zM920.86 456c-.06 2.08 1.07 3.7 2.71 3.7 1.49 0 3.23-1.47 4.45-2.62 3.47-3.24 9.66-9.48 12.23-11.64 3.12-2.62 6.45-4.16 9.73-4.16 4.62 0 7.12 2.23 10.14 6.4 3.6 4.93 13.73 18.49 20.32 24.58 4.3 4 6.67 5.24 6.06 8.71a2.29 2.29 0 0 1-2.53 1.93c-1.8 0-3.6-2.7-5.5-4.78-6.38-7.32-18-24.2-20.89-28.44s-4.67-5.94-8-5.94c-2.51 0-5.14 1.16-7.78 3.7a185.84 185.84 0 0 0-12.59 14.19C927.35 464 927 466 924.65 466c-3.13 0-6.67-3.93-6.19-6.63a5.61 5.61 0 0 1 2-3.54zm48.78-20.58c6 2.62 9.86 7.09 9.4 9.71-.2 1.16-1 2.55-2.25 2.55s-1.83-.7-2.15-2c-.36-1.46-1.56-5.32-6.42-8.86zm8.82-6.09c6 2.62 9.87 7.09 9.4 9.71-.2 1.16-1 2.55-2.24 2.55s-1.84-.7-2.16-2-1.56-5.32-6.42-8.86zM1005.34 471.71c6.5 0 10.83 5.17 9.7 11.56a14.46 14.46 0 0 1-13.77 11.56c-6.5 0-10.83-5.16-9.7-11.56a14.46 14.46 0 0 1 13.77-11.56zm7.2 11.56a7.49 7.49 0 0 0-7.63-9.09 11.42 11.42 0 0 0-10.84 9.09 7.5 7.5 0 0 0 7.63 9.1 11.43 11.43 0 0 0 10.84-9.1z"/>
    </g>
    <g fill="#f10040">
        <path d="M774.55 124.56l4.22 4.94c-.65.54-1.6.61-3.1.69a48.79 48.79 0 0 1-7.82 7.09l-1.07-.61a64.22 64.22 0 0 0 4.42-7.33h-54.7c-1.44 6.4-6.33 9.25-9.22 9.25-2.2 0-2-1.31-1.9-1.69a4.27 4.27 0 0 1 2.24-2.47 13.1 13.1 0 0 0 7.73-10.1l1.5-.07a24.32 24.32 0 0 1 0 3.08h24.42l2.61-14.8 7.25.62c-.31 1.31-1.33 1.77-4.22 2.16l-2.12 12h9a142.87 142.87 0 0 0 12.45-14.26l5.34 3.47a2.15 2.15 0 0 1-1.6.62 4.91 4.91 0 0 1-1.58-.31 106.56 106.56 0 0 1-12.18 10.48h15.1zm-15.61 34.38l2.47-2.47 5 4.09a7.75 7.75 0 0 1-3.7 1.46l-2.15 12.18c-.55 3.16-1.62 5.24-8.19 6.09.62-3.55-3.26-3.7-7.76-3.93l.2-1.16h10.1c1.49 0 2-.15 2.15-1.08l2.32-13.18h-20.5l-3.81 21.58c0 .16-.73 1.47-3.78 1.47l4.06-23.05H715l-3.2 18.12c0 .07-.75 1.15-3.72 1.15l4.09-23.2 3.65 1.93h19.88l1.44-8.17H722.5l-.38 2.16c0 .08-.91 1.15-3.72 1.15l3.43-19.5 3.58 1.93h31.77l2.29-2.31 4.73 3.8a7.18 7.18 0 0 1-3.29 1.38L758.68 152a5.11 5.11 0 0 1-3.77 1.39l.46-2.62h-13.3l-1.45.23-1.4 7.94zm-37.31-45.86c8.16 3 10.09 7.63 9.58 10.48a2.76 2.76 0 0 1-2.4 2.55 2 2 0 0 1-1.46-.62c0-4-3.26-9-6.48-11.64zm1.23 35.69h32.87l1.8-10.26h-32.87zM796.16 157.63l2.41-2.54 5.07 4.08a8.22 8.22 0 0 1-3.72 1.54l-3.33 18.88a5 5 0 0 1-3.76 1.39l.75-4.24h-11.66l-1 5.94c0 .08-.77 1.23-3.74 1.23l5-28.21 3.58 1.93zm-13.89 17.11h11.66l2.66-15.11h-11.66zm22-26.74c-.84 1.23-1.72 1.77-3.83 1.77h-17.13l-.2-2h13.31l3.24-3.31zm1.62-23.82l5.08 4c-.84 1.23-1.8 1.77-3.91 1.77h-23.47l-.19-2h18.86zm-7.73 13.64l3.25-3.31 4.61 3.54c-.84 1.24-1.72 1.78-3.83 1.78h-17.13l-.19-2zm11.64-19.42c-.92 1.23-1.8 1.77-3.91 1.77h-17.44l-.2-2h13l3.55-3.7zm10.58 54.1h-12.6l-1 5.86s-.53 1.23-3.74 1.23l5.81-32.91 3.57 1.93h11.42l2.41-2.54 5 4.08a7.69 7.69 0 0 1-3.71 1.54l-4.07 23.05c0 .23-1.35 1.46-3.7 1.46zm28.62-4.85l-3.35 11.48c.9 2 1.24 3.16 1.12 3.86a1.75 1.75 0 0 1-1.77 1.15c-3.44 0-7.6-6.16-9.2-15.72a64.3 64.3 0 0 1-21.5 15.41l-.49-1.23a66.16 66.16 0 0 0 21.44-18.19 109.92 109.92 0 0 1 .34-22.35H805.8l-.2-2h16.59a134 134 0 0 0 5.6-13.11l6.2 1.7c-.37.77-1.22 1.16-2.93 1.08a93.89 93.89 0 0 1-6.91 10.33h11.66c.92-8.33 2.37-17.42 4-26.9l6.58.85c-.33 1-1 1.31-3.26 1.62-.61 3-1.14 6-1.67 9-.92 5.24-1.75 10.41-2.32 15.42H845l3.82-3.93 5.37 4.16c-.84 1.23-1.8 1.77-4 1.77H839a102.94 102.94 0 0 0-.7 18.19 79.21 79.21 0 0 0 7.16-13.57l6.34 1.78c-.47.92-1.26 1.38-3.28 1.31a78.1 78.1 0 0 1-9.75 15.34c1.06 8.17 4 12.1 4.28 12.1.79 0 4.11-7.33 5.08-9.72zm-40.88 2.85h12.6l1.6-9.09h-12.6zm16.1-19.88h-12.6l-1.55 8.78h12.63zm-13.71-25.21l-.19-2h10.58l1.65-9.33 6.79.54c-.36 1.16-1.15 1.62-3.71 1.93l-1.21 6.86h4.39l3.33-3.39 4.69 3.62c-.85 1.23-1.72 1.77-3.84 1.77zm3.48 2c3 3.31 3.73 6.39 3.35 8.55-.34 1.93-1.58 3.16-2.67 3.16a1.56 1.56 0 0 1-1.42-.85 29.5 29.5 0 0 0-.34-10.48zm33.26-9.71c6.86 3.69 8.46 7.93 8 10.55-.28 1.62-1.32 2.62-2.41 2.62a2.3 2.3 0 0 1-1.53-.69c-.13-3.7-2.58-8.86-5-11.87zM913 136.82c.71-.92 2.82-1.39 4-1.39 3.91 0 6.92 3.78 6.63 5.47-.24 1.31-1.2 2.32-4.76 3-3.89.77-14.37 4.7-22.86 8.48a12 12 0 0 1-.22 1.69c-1.76 9.95-3.19 13.65-5.38 13.65-1.1 0-1.78-1-1.41-3.09a14.54 14.54 0 0 1 .44-1.62 54.23 54.23 0 0 0 2.53-9c-7.86 3.7-16.32 8.63-17.58 15.8-.91 5.16 4.12 7.24 13.2 7.24 8.69 0 15.09-.38 16.77-1.92 4.82.23 7.33 1.07 7.12 2.23s-.69 1.7-2.8 2.16c-4.07.85-12.78 1-17.08 1-19.26 0-21.31-4.78-20.29-10.56 1.3-7.4 11.58-14.18 21-18.57.1-.54.11-1.08.22-1.7.69-6.55-2-8.32-5.11-8.32-7.74 0-18.81 9.94-27.23 19.5-2.24 2.54-3.31 3.7-4.25 3.7-.7 0-1.58-1.24-1.35-2.55.33-1.85 1.73-2.7 4.55-4.93 7.8-6.09 17.33-18 21.68-26.21-2.62.24-5.38.31-7.1.31-5.79 0-8.92-1.77-10.18-6.16l1.26-.93c1.76 3.32 4.66 4.63 10.22 4.63a64.5 64.5 0 0 0 7.36-.47c2-3.7 2.95-6.08 3.3-8.09s-1.82-2.54-3.77-2.54a9.3 9.3 0 0 0-1.52.15l-.14-.07a4.66 4.66 0 0 1 4.48-2.78c4 0 7.07 2.08 6.77 3.78s-1.4 1.69-2.43 3.54-2.07 3.78-3.09 5.55a99 99 0 0 0 15.4-3c2.07-.62 3.69-1.39 4.68-3 4.62 0 7.05.39 6.73 2.24-.18 1-2 1.38-3.86 1.92a174.63 174.63 0 0 1-24.61 4.63A93.83 93.83 0 0 1 873.23 146l.36.16c6.6-5.48 11.56-6.94 14.69-6.94 4.46 0 8.38 2.16 8 10.33 9.61-4.4 20.55-8.25 20.82-9.79.22-1.24-1-2.08-2.77-2.08a6.73 6.73 0 0 0-1.18.07zM924.56 151.85c8.41-8.63 18.27-23.74 25.38-38.77l6 2.08c-.46.85-1.17 1.31-3.11 1.24a176.21 176.21 0 0 1-10.42 16.95l2.48 1a3.12 3.12 0 0 1-2.59 1.39l-8.3 46.94a5 5 0 0 1-3.12 1.31h-.63l7.92-44.94a94.56 94.56 0 0 1-12.5 13.65zm59 8.86l2.39-2.46 4.85 4a7.41 7.41 0 0 1-3.45 1.39L984.12 182a5 5 0 0 1-3.78 1.47l.81-4.55H950l-.67 3.78c0 .08-.76 1.23-3.74 1.23l4.41-25.14 3.58 1.92zm12.5-35.71l5.37 4.16c-.84 1.23-1.8 1.77-4 1.77h-47.65l-.2-2h42.66zm-45.71 52h31.15l2.5-14.18h-31.15zm35.33-30.83l5.37 4.16c-.84 1.23-1.8 1.77-4 1.77h-35.91l-.19-2h30.91zm1.86-10.56l5.38 4.16c-.85 1.23-1.8 1.77-4 1.77H953l-.19-2h30.91zm8.46-17.75c-.85 1.23-1.8 1.77-3.91 1.77h-34.54l-.19-2h29.43l3.9-3.93zM1010.4 119.71c1-1.77 3.35-2.62 5.23-2.62 2.82 0 7.46 1.62 7 4.55-.3 1.69-2.08 2-3.84 7.09-2 6.09-6.09 22.12-8 32-2.19 12.41 3.29 15 12.92 15 11.9 0 22.91-6.09 32.26-19.19l1.72.93c-9.25 15.18-21.41 22-34.63 22-10 0-18.33-3.93-15.8-18.27 1.88-10.63 5.91-27.28 8.55-37.84l.08-.46c.14-.77.38-3-3.07-3a18.39 18.39 0 0 0-2.29.16zm28.31 6.32c9.35 3.78 10.25 8 9.93 9.79a2.34 2.34 0 0 1-2 2.08c-1.09 0-1.77-.62-2.15-2-.61-2.32-3.46-6.09-7-8.41zm9.81-5.47c9.35 3.77 10.24 8 9.93 9.78a2.35 2.35 0 0 1-2 2.09c-1.09 0-1.77-.62-2.15-2-.61-2.31-3.47-6.09-7-8.4zM1078.21 178.75c25.8-.77 38.4-6.09 40.48-17.88 1.78-10.1-4.93-15.11-12.91-15.11-7.12 0-14.51 1.93-23.49 7.63a31.91 31.91 0 0 0-4.67 3.39c-5.28 4.63-8.19 9.17-9.76 9.17-1.95 0-2.34-1.38-2.11-2.69.47-2.62 5.65-5.4 9.41-8.95 10-9.17 24.84-22 34-29.51 1.18-.93 2.3-1.93 2.46-2.86.14-.77-.38-.92-1.16-.92-3.06 0-14 2.7-20.19 4.86-2.17.77-3.2 2.15-4.92 2.15-3.29 0-5.6-3.77-5.2-6a6.09 6.09 0 0 1 2.12-3.62l.92.15a2.87 2.87 0 0 0-.22.77c-.39 2.24 1.38 3.7 4 3.7s16.73-2.54 20.71-4.24c1.27-.54 3.1-1.61 3.73-1.61 3.28 0 6.82 3.46 6.4 5.85-.27 1.54-2.27 1.31-4.93 3.09-6.82 4.54-20.48 15.41-27.14 22.58v.15a48.42 48.42 0 0 1 20.88-5.24c11.89 0 18 7.17 16.19 17.34-2.4 13.65-14.08 19.5-44.89 19.81zM1149.24 160.71a9.5 9.5 0 0 1 9.7 11.56 14.47 14.47 0 0 1-13.78 11.56c-6.5 0-10.83-5.16-9.7-11.56a14.47 14.47 0 0 1 13.78-11.56zm7.19 11.56a7.48 7.48 0 0 0-7.63-9.09 11.43 11.43 0 0 0-10.84 9.09 7.5 7.5 0 0 0 7.63 9.1 11.42 11.42 0 0 0 10.84-9.1z"/>
    </g>
    <g fill="#f10040">
        <path d="M760.5 932.69a8.32 8.32 0 0 1-4 1.38l-3.82 21.66c4.56 6.55 10.8 7.56 24.34 7.56 9.7 0 22.7 0 32.45-.31l-.2 1.15a4 4 0 0 0-3.73 2.93h-29.11c-14.4 0-20.75-1.69-25.13-9.71-3.36 3.08-8.57 7.32-11.72 9.63a1.56 1.56 0 0 1 0 .54 1.74 1.74 0 0 1-1 1.24l-2.43-4.86a148.19 148.19 0 0 0 13-7.32l4.12-23.35h-10.8v-2.09h10.18l3.08-3.31zm-10.58-32.3c9.37 4.09 11.63 9.48 11.06 12.72-.3 1.7-1.36 2.85-2.54 2.85a2.46 2.46 0 0 1-1.6-.69c-.19-4.7-4-10.79-7.76-14.11zm20.37 27.36l-5.38 30.53s-.53 1.23-3.74 1.23l6.31-35.76 3.64 2h2.42l4.58-26 4.1 2.08h22.14l2.79-2.93 5 4.31c-.78.85-1.86 1.24-3.86 1.47l-3.71 21h2.12l2.29-2.39 4.73 3.85a7.16 7.16 0 0 1-3.3 1.39l-4.41 25c-.57 3.24-1.66 5.48-6.62 6.09.52-3-.87-3.54-5.13-3.77l.2-1.16h6.58c.94 0 1.29-.23 1.47-1.23l4.54-25.75zm24.12 23.9c-.16.46-2.12 1.38-3.3 1.38h-.47l.52-2.92h-13l-.59 3.31c0 .08-.75 1.16-3.72 1.16l3.8-21.58 3.59 1.84h12l2.1-2.15 4.46 3.54a5.25 5.25 0 0 1-2.88 1.24zm-13.49-47.79l-3.86 21.89h9.24l2.76-15.65 4.09 2.09h10.33l1.47-8.33zm-2.4 44.24h13l2-11.25h-13zm11.3-22.35h11.27l2-11.56h-11.23zM862.25 908.18c.34.31 1.43.31 4 .31 2.27 0 4.2.15 3.93 1.69s-1.77 2.08-6.64 3.47A197 197 0 0 1 839 918.2c-1.65 4.47-6.63 19-7.11 21.65-.15.85-.06 1.24.25 1.24a2 2 0 0 0 .69-.31c8-5 18.33-8.56 25.37-8.56 11.27 0 15.43 6.63 13.84 15.65-2.08 11.79-18.68 18-44.31 18.27v-2.08c23.33-.93 38.34-6.17 40.12-16.27 1.43-8.09-.89-13.1-10.68-13.1-8.21 0-17.47 4.09-24.41 9.71-.64.54-1.16 2.62-2.88 2.62a3.75 3.75 0 0 1-3.44-4.47c.26-1.46 1.11-1.85 2-3.54 1.52-2.86 4.72-13.88 7.12-20.43-3.26.31-5.79.46-8 .46-6.89 0-8.89-2.85-9.25-5.7l1.4-.85c1.16 2.32 2.7 3.78 8.42 3.78 1.95 0 5.22-.31 8.4-.62a70 70 0 0 0 3.15-9.86c.26-1.93.23-3.08-2-3.08a17.36 17.36 0 0 0-2.89.38l-.12-.15a5.48 5.48 0 0 1 4.92-3.09c2.74 0 7.08.7 6.63 3.24-.26 1.46-1.5 1.85-2.74 4.47-.76 1.62-2.13 4.93-3.24 7.71a92.42 92.42 0 0 0 17.59-3.47c2.16-.69 3.59-1.7 3.66-3zM940.26 921.82c.71-.93 2.83-1.39 4-1.39 3.92 0 6.93 3.78 6.63 5.47-.23 1.31-1.19 2.32-4.75 3-3.9.77-14.37 4.7-22.87 8.48a12 12 0 0 1-.22 1.69c-1.75 9.95-3.18 13.65-5.38 13.65-1.09 0-1.78-1-1.41-3.09.08-.46.26-1 .44-1.62a52.36 52.36 0 0 0 2.53-9c-7.85 3.7-16.31 8.63-17.58 15.8-.91 5.16 4.13 7.24 13.21 7.24 8.68 0 15.09-.38 16.77-1.92 4.81.23 7.32 1.07 7.12 2.23s-.69 1.7-2.81 2.16c-4.06.85-12.77 1-17.08 1-19.25 0-21.3-4.78-20.28-10.56 1.3-7.4 11.57-14.18 21-18.57.09-.54.11-1.08.22-1.7.68-6.55-2-8.32-5.11-8.32-7.75 0-18.81 9.94-27.23 19.5-2.25 2.54-3.31 3.7-4.25 3.7-.71 0-1.58-1.24-1.35-2.55.32-1.85 1.73-2.7 4.54-4.93 7.81-6.09 17.34-18 21.69-26.21-2.63.24-5.38.31-7.1.31-5.79 0-8.92-1.77-10.18-6.16l1.26-.93c1.76 3.32 4.66 4.63 10.22 4.63a64.19 64.19 0 0 0 7.35-.47c2-3.7 3-6.08 3.31-8.09s-1.82-2.54-3.78-2.54a9.17 9.17 0 0 0-1.51.15l-.14-.07a4.66 4.66 0 0 1 4.48-2.78c4 0 7.06 2.08 6.76 3.78s-1.39 1.69-2.42 3.54-2.08 3.78-3.09 5.55a99.22 99.22 0 0 0 15.4-3c2.06-.62 3.69-1.39 4.68-3 4.61 0 7 .39 6.72 2.24-.17 1-2 1.38-3.86 1.92a175.93 175.93 0 0 1-24.6 4.63A94.41 94.41 0 0 1 900.45 931l.37.15c6.6-5.47 11.55-6.93 14.68-6.93 4.46 0 8.39 2.16 8 10.33 9.62-4.4 20.55-8.25 20.83-9.79.21-1.24-1-2.08-2.77-2.08a6.91 6.91 0 0 0-1.19.07zM1027.19 914.5c-.83 1.15-1.8 1.77-4.07 1.77h-10.33c-6.35 13-14.47 23.89-25.17 32.68 7.71 7.71 18.1 13.18 30.82 16.49l-.39.85a5.81 5.81 0 0 0-4.87 2.77c-12.1-3.69-21.79-9.55-28.75-17.57-10.36 7.71-22.9 13.57-38.4 17.57l-.21-1.46c14.68-4.24 26.79-10.33 36.8-18.27-6.78-8.63-10.78-19.65-11.7-33.06h-15.34l-.2-2h34l2.91-16.27 7.25.62c-.31 1.31-1.33 1.77-4.21 2.16L993 914.27h24.5l4.09-4.17zm-54.39 1.77c1.34 12.33 5.73 22.51 12.85 30.52a90.92 90.92 0 0 0 22.68-30.52zM1044.85 902.32a6.8 6.8 0 0 1 3.77-1.39c2 0 5.64 2.16 5.15 4.94-.35 2-1.56 2.23-2.76 5.47-.29.77-.6 2.08-.8 2.77 1.39 1 2.71 1.93 2.45 3.39s-2.62 2-4.11 4.71a26.43 26.43 0 0 0-1.8 4.39c-.3.85-.29 1.23-.48 1.85 10.5-8.94 23.25-15.57 29.51-15.57 9.08 0 9.15 5.39 8 11.71a122.58 122.58 0 0 1-3.28 13.72c-1.12 4.16-2.29 8.56-2.85 11.72-1 5.55-.09 8.09 2.57 8.09 3 0 6.11-1.39 10.54-5.16l1.15 1c-4.2 5.16-8 8.4-12.6 8.4-5.63 0-6.82-4.78-5.71-11.1 1.52-8.63 4.29-17.65 5.47-22.58.35-1.54.7-3.08.94-4.47.85-4.78.59-8.63-4.66-8.63-7.82 0-18.35 6.47-29.64 15.87-.52 2.09-1.33 5.78-1.63 7.48-1 5.63-2.13 12.1-3 18.65-.16 1.39-.06 3.47-.37 5.24-.29 1.62-2.47 3.78-3.8 3.78s-1.28-2.93-.9-5.55c.48-3.16.11-5.47-3.46-12.33l1-.62c1.42 2.16 3.9 4.93 4.3 4.93s.76-.3 1.19-2.77c1-5.63 2.19-11.56 3.06-15.57a130.91 130.91 0 0 0-14.1 13.72c-1.59 1.93-2.58 3.55-4.23 3.55-1.48 0-1.76-1.08-1.4-3.17.23-1.31.33-1.38 2.26-3 7.59-6.24 16.36-13.8 18.95-18.73.75-2.93 1.43-6.32 2.11-8.86a38.54 38.54 0 0 0-9.69 3 4.74 4.74 0 0 0-2.59 3.63 7.94 7.94 0 0 0 0 2.62l-1.68.61c-.32-2.62-1.28-3.39-.94-5.32.46-2.62 2.29-4.54 5.87-5.31 3.1-.7 8.9-2.09 9.85-2.62.62-2.62 1.44-6.4 1.61-7.33.76-4.31-.54-4.47-3.3-4.39zM1110.61 945.71a9.5 9.5 0 0 1 9.7 11.56 14.47 14.47 0 0 1-13.78 11.56 9.49 9.49 0 0 1-9.7-11.56 14.48 14.48 0 0 1 13.78-11.56zm7.19 11.56a7.48 7.48 0 0 0-7.63-9.09 11.44 11.44 0 0 0-10.84 9.09 7.5 7.5 0 0 0 7.64 9.1 11.42 11.42 0 0 0 10.83-9.1z"/>
    </g>
    <g fill="#f10040">
        <path d="M773.12 179.16l5.32 4.47a8.5 8.5 0 0 1-4.14 1.7l-10.45 59.27a4.79 4.79 0 0 1-3.79 1.54l.84-4.78H719l-.74 4.16c-.06.39-.8 1.47-3.77 1.47l11.82-67.06L730 182h40.5zm-53.74 60.2h41.87l3.07-17.42h-41.87zm48.32-36.53h-41.88l-3 17.11h41.87zM771 184h-41.86l-3 16.8h41.87zM837.09 199.82c.71-.92 2.83-1.39 4-1.39 3.92 0 6.93 3.78 6.63 5.47-.23 1.31-1.19 2.32-4.75 3-3.9.77-14.37 4.7-22.87 8.48a12 12 0 0 1-.22 1.69c-1.75 9.95-3.18 13.65-5.38 13.65-1.09 0-1.78-1-1.41-3.09.08-.46.26-1 .44-1.62a52.36 52.36 0 0 0 2.53-9c-7.85 3.7-16.31 8.63-17.58 15.8-.91 5.16 4.13 7.24 13.21 7.24 8.68 0 15.09-.38 16.77-1.92 4.81.23 7.32 1.07 7.12 2.23s-.69 1.7-2.81 2.16c-4.06.85-12.77 1-17.08 1-19.25 0-21.3-4.78-20.28-10.56 1.3-7.4 11.57-14.18 21-18.57.09-.54.11-1.08.22-1.7.68-6.55-2-8.32-5.11-8.32-7.75 0-18.81 9.94-27.23 19.5-2.25 2.54-3.31 3.7-4.25 3.7-.71 0-1.58-1.24-1.35-2.55.32-1.85 1.73-2.7 4.54-4.93 7.81-6.09 17.34-18 21.69-26.21-2.63.24-5.38.31-7.1.31-5.79 0-8.92-1.77-10.18-6.16l1.26-.93c1.76 3.32 4.66 4.63 10.22 4.63a64.19 64.19 0 0 0 7.35-.47c2-3.7 3-6.08 3.31-8.09s-1.82-2.54-3.78-2.54a9.17 9.17 0 0 0-1.51.15l-.14-.07a4.66 4.66 0 0 1 4.48-2.78c4 0 7.06 2.08 6.76 3.78s-1.39 1.69-2.42 3.54-2.08 3.78-3.09 5.55a99.22 99.22 0 0 0 15.4-3c2.06-.62 3.69-1.39 4.68-3 4.61 0 7 .39 6.72 2.24-.17 1-2 1.38-3.86 1.92a174.49 174.49 0 0 1-24.6 4.63A94.41 94.41 0 0 1 797.28 209l.37.16c6.6-5.48 11.55-6.94 14.68-6.94 4.46 0 8.39 2.16 8 10.33 9.62-4.4 20.55-8.25 20.83-9.79.21-1.24-1-2.08-2.77-2.08a6.91 6.91 0 0 0-1.19.07zM871.11 210.69a8.32 8.32 0 0 1-4 1.38l-3.82 21.66c4.4 6.55 10.49 7.56 23.79 7.56 9.47 0 22.23 0 31.68-.31l-.21 1.15a4.07 4.07 0 0 0-3.64 2.93H886.5c-14.17 0-20.38-1.62-24.65-9.79-3.77 3.16-9.62 7.48-13.15 9.79a1.63 1.63 0 0 1 0 .62 1.65 1.65 0 0 1-1.07 1.23l-2.32-5.09c3.48-1.54 9.43-4.62 14.55-7.47l4.08-23.12h-12.49v-2.08h11.74l3.07-3.24zm-11.53-32.22c10 4.09 12.4 9.56 11.84 12.72a2.75 2.75 0 0 1-2.48 2.54 2.31 2.31 0 0 1-1.54-.62c-.6-4.54-4.87-10.55-8.59-13.87zm32.52 35.68c-.36 1.16-1.34 1.39-3.23 1.47-2.66 8.86-7.92 17-21.24 21l-.42-1.62c11.93-4.16 16.42-12.33 18.53-21.66zm-11.43 0c0 .08-.75 1.16-3.72 1.16l3.41-19.31a55.3 55.3 0 0 1-6.8 4.85l-.94-.92c7.73-5.63 15.65-15.5 20.12-24l6.07 1.54c-.47.85-1.08 1.23-3 1.08-1 1.54-2.11 3.08-3.34 4.7H908l3.14-2.7 4.08 4.78a6.34 6.34 0 0 1-3.17.69 120.46 120.46 0 0 1-8.75 8.33h12.92l2.4-2.55 5.07 4.09a8.55 8.55 0 0 1-3.71 1.54l-2.82 15.95a5 5 0 0 1-3.76 1.39l.49-2.77h-9.08a5.52 5.52 0 0 1-1.13.15l-3.07 17.42c-.34 1.93-.27 2 1.68 2h9.94a1.94 1.94 0 0 0 2.09-1.15c.55-.93 2.12-4.94 3.62-9h.86l-1.74 9.58c1.79.54 2.07.7 2 1.24-.27 1.54-2.21 2.31-7.22 2.31h-10.27c-4.46 0-5.17-.85-4.44-5l3.1-17.57h-19.17zm.74-4.16h14.4l2.4-13.64h-14.4zm19.9-15.64a92.82 92.82 0 0 0 6.38-9.1h-16.83a74 74 0 0 1-7.81 8.33l1.51.77zm15.38 2h-15L899.33 210h14.95zM935.58 241.44c24.19-.93 38.74-4.86 40.86-16.88 1.74-9.87-3.69-12.79-12.3-12.79-6.89 0-16.41 3.39-26.57 11.33-1.37 1.07-2.32 2.92-3.57 2.92-2.82 0-4.51-2.38-4.2-4.16.16-.92.78-1.31 1.61-2.46a18.63 18.63 0 0 0 2.73-5.71 96.74 96.74 0 0 0 2.59-10.25 18.08 18.08 0 0 0 .33-4.54 5.87 5.87 0 0 1 .05-1.62c.35-2 1.84-4.24 6-6.32a50 50 0 0 1 14.35-4.17l-.07-.07c-7-.47-11.62-2.85-13-7.71l2.07-1.08c2.53 5.63 9.76 5.94 19.46 5.94 4.3 0 7.37 2.15 7 4.54-.21 1.24-1.83 1.54-3.24 1.54-.78 0-2.86-1.07-4.39-1.31a35.89 35.89 0 0 0-4-.23 39.43 39.43 0 0 0-16.71 3.78c-2.39 1.15-4.21 2.16-4.57 4.16a4.05 4.05 0 0 0 .39 2.7 4.23 4.23 0 0 1 .51 2.85c-.36 2.08-1.73 4.93-3.46 11.64a24.38 24.38 0 0 1-2.45 6.4c0 .07-.11.15-.12.23-.06.31.14.54.29.54a4 4 0 0 0 2.32-.7c8.55-5.47 19.4-10.63 27.31-10.63 11.42 0 17.62 4.77 15.78 15.26-2.59 14.64-19.39 18.49-45 18.8zM1019.21 180.24a5.13 5.13 0 0 1 4.79-2.77c3.6 0 6.93 2 6.7 3.77-.25 1.39-1.26 2.24-1.64 3.09s-.78 2.62-1.55 7c6-.38 11.3-.61 14-.69 3.22-.08 4.83-.77 6.22-2 3.59 1 8 2.78 7.64 4.63-.11.61-1.22 1.15-2.24 1.15-2.42 0-5.28-1.08-9.8-1.23-.86 0-1.94-.08-3-.08-4.14 0-9.58.23-13.15.47-.36 2.08-2.3 12.17-2.55 14.49 1.1 2.62 1.3 5.93.23 12-2 11.25-10 21-26.38 25.74l-.8-1.69c13.36-4.71 21-13 22.85-21.28-2.24 2.93-6 4.71-10.92 4.71-7 0-10.7-5.48-9.6-11.72a15.66 15.66 0 0 1 15-13 9.78 9.78 0 0 1 7.08 2.46c.77-4.39 1.37-8.71 1.79-11.48-5.8.46-17 1.85-21.38 2.7a51.76 51.76 0 0 0-5.39 1.31c-2.07.61-2.27 1.31-4.07 1.31-2.57-.08-5.92-3.7-5.46-6.32a4.09 4.09 0 0 1 1.64-2.62h.47c0 .69.19 4.23 5.2 4.23 4.15 0 24.68-2.38 29.29-2.77.67-5.16.9-6.47.92-7.48 0-1.85-.11-3.77-3.56-3.77a18.17 18.17 0 0 0-2.06.15zm2.59 32.84c.54-3.09-1.43-7.87-7.38-7.87-4.86 0-9.72 3.63-10.93 10.49-1 5.55 3.12 8.94 7 8.94 7.94 0 10.12-4.86 11.31-11.56zM1078.42 180.71a6.76 6.76 0 0 1 4.9-2.47c3.44 0 6.84 2 6.53 3.78s-1.73 1.38-3.36 5.31c-.68 1.62-1.94 3.86-2.78 5.55a73 73 0 0 0 12-3c2.46-1.08 3.49-2 4.11-3.32 5.83-.23 7.69.31 7.5 1.39-.24 1.39-1.77 2.08-5.67 3.31a174.68 174.68 0 0 1-19.18 4.47c-5.54 11-15.3 26-22 33.53a4.35 4.35 0 0 1-2.3 1.47c-.86 0-1.67-1.16-1.41-2.62a5.61 5.61 0 0 1 1.83-3.32c5.72-4 15.6-17.88 20.37-28.52-3.12.39-6.23.7-7.48.7-4.69 0-8.17-1.16-8.35-5l1.35-1c1.12 2.54 3 3.46 6.51 3.46a64.15 64.15 0 0 0 9.23-.84 46.7 46.7 0 0 0 3.24-9.48c.2-1.16.53-3-3-3a9.19 9.19 0 0 0-1.84.23zm18.73 20.73c7.19-3.08 11.87-3.86 15.78-3.86 9.31 0 12.68 3.09 12.26 5.48-.11.61-.77.84-1.56.84a6.37 6.37 0 0 1-2.77-.69 6.75 6.75 0 0 0-3.33-.62 17.26 17.26 0 0 0-3 .31c-8.73 2-10.32 5.71-11.26 11l-.37 2.09a66.35 66.35 0 0 0-.29 7.86v2.54c6.73 2.62 16.3 6.94 15.38 12.18-.23.84-1.67 1.46-2.68 1.46-1.18 0-3.61-6.16-12.88-10.4-.08 1.31-.42 4.16-.75 6-.76 4.31-5.74 8.17-15.29 8.17-9 0-14.2-4.24-13.21-9.87 1-5.39 8.18-9.55 16.87-9.55a41.27 41.27 0 0 1 9.41 1.23c.24-2.7.25-6.78.64-9.4l.25-1.47c1-5.93 3.49-10.87 14.44-14l.07-.38a18.57 18.57 0 0 0-3.32-.31c-3.13 0-7.55.69-13.75 3zm2 26.82a29.36 29.36 0 0 0-9.94-1.77c-6.18 0-12.27 3-13 7.09-.82 4.62 2.65 7.17 10.47 7.17 7.67 0 11.06-2.32 11.67-5.79.4-2.23.74-5.47.8-6.7zM1143.23 223.71a9.5 9.5 0 0 1 9.7 11.56 14.48 14.48 0 0 1-13.78 11.56c-6.5 0-10.83-5.16-9.7-11.56a14.47 14.47 0 0 1 13.78-11.56zm7.19 11.56a7.48 7.48 0 0 0-7.63-9.09 11.43 11.43 0 0 0-10.84 9.09 7.5 7.5 0 0 0 7.63 9.1 11.42 11.42 0 0 0 10.84-9.1z"/>
    </g>
    <g fill="#f10040">
        <path d="M758.67 329.87l2.49-2.62 5 4.16a8.13 8.13 0 0 1-3.71 1.54l-6.06 34.37a5 5 0 0 1-3.78 1.47l.93-5.32H741l-1.51 8.53s-.54 1.31-3.67 1.31l8-45.4 3.58 1.93zm-17.31 31.6h12.52l5.22-29.6h-12.53zm66.92-37.77l5.17 4.39a8.9 8.9 0 0 1-4 1.55l-10.59 60a4.54 4.54 0 0 1-3.8 1.61l1-5.62h-33.22l-.84 4.97c-.13.69-1.12 1.46-3.7 1.46l11.9-67.66 3.54 2.08h32zm-45.09 60h33.26l9.73-55.18h-33.26zm38.17-36.7c-.85 1.23-1.8 1.77-3.92 1.77h-10.33c-.56 2.31-1.22 4.7-2 7.09 8.16 8.32 9.88 15.42 9.22 19.19-.33 1.85-1.21 2.85-2.23 2.85a2.09 2.09 0 0 1-1.44-.69c0-5.63-3.23-13.64-6.3-19.35-3.13 8-8.3 16-17.45 21.74l-1-1.08c10.88-8 15.41-19.5 17.69-29.75h-11.9l-.19-2H784c.26-1 .43-2 .61-3l2-11.56 6.54.62c-.34 1.08-1 1.54-3.44 1.77l-1.62 9.17c-.17 1-.35 2-.61 3h5l3.63-3.7zM830.82 353.38c6.34-8 13-20.2 18-32.3l6.1 1.77c-.39.93-1.1 1.39-3 1.39a146.21 146.21 0 0 1-8.85 16l2.85 1.16a3.19 3.19 0 0 1-2.6 1.39l-8.42 47.81a5.06 5.06 0 0 1-3.13 1.31h-.63l8.13-46.09a75.72 75.72 0 0 1-9 10.48l-2 11.1a5 5 0 0 1-3.78 1.47l.94-5.32h-10.02l-1.51 8.55s-.55 1.31-3.68 1.31l8-45.39 3.57 1.92h8.85l2.49-2.62 5 4.17a8.34 8.34 0 0 1-3.71 1.54zm-15.06 8.16h10.1l5.21-29.54H821zm64.93 6.4c-.93 1.23-1.8 1.77-4 1.77h-14.08c2.1 8.48 7.61 15.42 14.72 18.58l-.23.85a5.22 5.22 0 0 0-4 3.08c-6.9-4.39-11-12-12.29-22.2-3.49 8.71-9.51 16.19-22.06 22.12l-.93-1.38c11-5.79 16.45-12.95 19.68-21.05h-14.93l-.19-2h15.81a109.06 109.06 0 0 0 3.32-13.1h-8.29a57.85 57.85 0 0 1-7.65 10.56l-1.21-.7c3.29-4.93 7-13.18 9.64-21l6.23 1.54c-.4.93-1 1.31-2.83 1.39-.92 2.08-2 4.16-3 6.16h16.83l3.53-3.62 5 3.86c-.84 1.23-1.8 1.77-3.91 1.77h-10.74a106.94 106.94 0 0 1-3.4 13.1h9.78l3.81-3.85zm-6.75-40.31H857l-.28-2h17.06l2.59-2.24 3.62 3.86a3.35 3.35 0 0 1-2.49.84l-3.23 11.18h2.35l3.8-3.78 5.24 4c-.84 1.23-1.8 1.77-3.91 1.77h-33.22l-.2-2h22.23zM944.68 344.82c.72-.92 2.83-1.39 4-1.39 3.91 0 6.92 3.78 6.62 5.47-.23 1.31-1.19 2.32-4.75 3-3.9.77-14.37 4.7-22.86 8.48a12 12 0 0 1-.23 1.69c-1.75 9.95-3.18 13.65-5.37 13.65-1.1 0-1.78-1-1.42-3.09.08-.46.26-1 .44-1.62a52.36 52.36 0 0 0 2.53-9c-7.85 3.7-16.31 8.63-17.57 15.8-.91 5.16 4.12 7.24 13.2 7.24 8.68 0 15.09-.38 16.77-1.92 4.81.23 7.33 1.07 7.12 2.23s-.69 1.7-2.81 2.16c-4.06.85-12.77 1-17.08 1C904 388.52 902 383.74 903 378c1.3-7.4 11.58-14.18 21-18.57.09-.54.11-1.08.22-1.7.68-6.55-2-8.32-5.11-8.32-7.75 0-18.81 9.94-27.23 19.5-2.25 2.54-3.31 3.7-4.25 3.7-.7 0-1.58-1.24-1.35-2.55.32-1.85 1.73-2.7 4.55-4.93 7.8-6.09 17.33-18 21.68-26.21-2.63.24-5.38.31-7.1.31-5.79 0-8.92-1.77-10.18-6.16l1.26-.93c1.76 3.32 4.66 4.63 10.22 4.63a64.5 64.5 0 0 0 7.36-.47c2-3.7 2.95-6.08 3.3-8.09s-1.82-2.54-3.78-2.54a9.17 9.17 0 0 0-1.51.15l-.14-.07a4.66 4.66 0 0 1 4.48-2.78c4 0 7.06 2.08 6.77 3.78s-1.4 1.69-2.43 3.54-2.07 3.78-3.09 5.55a99.22 99.22 0 0 0 15.4-3c2.06-.62 3.69-1.39 4.68-3 4.61 0 7.05.39 6.72 2.24-.17 1-2 1.38-3.86 1.92a174.22 174.22 0 0 1-24.6 4.63A95 95 0 0 1 904.88 354l.36.16c6.6-5.48 11.55-6.94 14.68-6.94 4.46 0 8.39 2.16 8 10.33 9.62-4.4 20.55-8.25 20.83-9.79.21-1.24-1-2.08-2.77-2.08a6.91 6.91 0 0 0-1.19.07zM971.48 357.92c3.88-1.15 8.09-2.39 12.31-3.7l.18 1.24c-3.55 1.46-7.85 3.23-13 5.31l-4.35 24.67c-.6 3.39-1.9 5.85-7.5 6.55.51-2.85-1.75-3.39-6.86-3.7l.23-1.31h8.61c1.33 0 1.79-.39 2-1.62l4.08-23.12c-2.7 1.08-5.56 2.23-8.58 3.39a3.4 3.4 0 0 1-1.82 1.85l-1.95-4.93c2.69-.62 7.3-1.85 12.92-3.55l3.41-19.34h-11.33l-.2-2h11.9l2.92-16.57 7.09.62c-.37 1.23-.93 1.77-4 2.16l-2.44 13.79h3.76l3.53-3.62 5 3.85c-.84 1.24-1.72 1.78-3.91 1.78h-8.78zm62.15-31.14c-.84 1.24-1.88 1.78-4 1.78h-35.21L991 347.9c-2.42 13.72-6.33 31.45-18.72 44l-1.25-.85c10.19-12.56 13.8-28.13 16.44-43.08l4.15-23.58 3.93 2.15h28.88l3.82-3.93zm-11.05 48.48l-1.58 8.94c2 .54 2.46.7 2.34 1.39-.29 1.62-2.44 2.31-8.7 2.31h-17c-5.63 0-6.62-1.08-5.7-6.24l7.46-42.31 4.09 2.08h16.36l2.3-2.39 4.72 3.85a7.16 7.16 0 0 1-3.3 1.39l-3.26 18.5c-.57 3.23-1.83 5.47-7.41 6.09.53-3-1.73-3.55-6.77-3.78l.2-1.16h8.67c1.25 0 1.6-.23 1.78-1.23l3.4-19.27h-18l-6.77 38.38c-.49 2.78-.28 2.93 2.77 2.93h16.44a3.67 3.67 0 0 0 3-.92c.79-.93 2.24-3.86 4.09-8.56zM1046.4 332.8a5.59 5.59 0 0 1 3.82-2.16c2.66 0 7 2.31 6.51 4.78-.29 1.69-1.48 2.62-2.1 4.85-.74 2.39-2 6.78-2.78 10.87 6.32-1.7 21.24-5.09 28.28-6.4 1.39-8.32 2-12.41 2-14.72 0-3.31-3.41-3.7-4.74-3.7a4.83 4.83 0 0 0-1.11.08l-.16-.46a5.29 5.29 0 0 1 4.14-2.16c4.07 0 6.91 2.54 6.6 4.31-.15.85-1.09 2.16-1.58 4.94l-.2 1.15c-.36 2-.94 5.78-1.61 10 5.78-.84 10.06-1.15 11.5-3.08 5 .85 8 2.47 7.68 4.39-.18 1-1.41 1.31-2.74 1.31-1.17 0-6.63-.54-7.89-.54a77.59 77.59 0 0 0-9.11.62l-.87 4.93c-1.07 6.09-4.18 20.2-10.84 20.2-.93 0-2-1.31-2.46-2-1-1.54-4.59-3.23-8.84-5.32l1-1.54c5.06 1.93 9 3.47 10.58 3.47 3.68 0 6.31-6 8.34-19.34a255.35 255.35 0 0 0-28.59 6.39c-.77 3.47-2 9.71-2.77 14.34-2.25 12.79 3.38 15.49 16.52 15.49 11 0 14-.62 15.24-1.62 4.81.7 6.41 1.39 6.22 2.47-.4 2.23-6.14 2.39-19.76 2.39-17.84 0-23.45-5-20.95-19.19l1.14-6.48c.43-2.46.86-4.85 1.22-6.47a60 60 0 0 0-8.54 3.16 10.93 10.93 0 0 1-3.89 1.62c-2.81 0-5.79-4-5.35-6.48a4.73 4.73 0 0 1 2.33-3.47l.15.08c-.4.46-.34 5 3.89 5 1.72 0 7.77-1.46 12-2.62.74-3.31 2.41-11.87 2.5-12.41.7-3.93.33-5.39-1.28-6a7.75 7.75 0 0 0-3.38-.39zM1116.52 368.71c6.5 0 10.83 5.17 9.7 11.56a14.46 14.46 0 0 1-13.77 11.56c-6.5 0-10.83-5.16-9.7-11.56a14.46 14.46 0 0 1 13.77-11.56zm7.2 11.56a7.49 7.49 0 0 0-7.63-9.09 11.42 11.42 0 0 0-10.84 9.09 7.49 7.49 0 0 0 7.63 9.1 11.43 11.43 0 0 0 10.84-9.1z"/>
    </g>
    <g fill="#f10040">
        <path d="M839.22 741.89l5.57 4.32c-.83 1.16-1.8 1.77-4 1.77H773l-.2-2H807l2.14-12.18h-21.72l-.19-2h22.23l1.83-10.41h-18.47a73.26 73.26 0 0 1-12.71 11.72l-1-.93c5.46-4.77 12.11-13.17 17.24-21.88l5.42 2.54c-.52.77-1.3 1.16-3 .92-1.35 1.93-2.78 3.78-4.28 5.63h17.14l1.63-9.25 7.25.62c-.31 1.31-1.33 1.77-4.21 2.16l-1.14 6.47h20.11l3.73-3.85 5.31 4.08c-.93 1.23-1.88 1.77-4.07 1.77h-25.43L813 731.8h15.81l3.73-3.85 5.3 4.08c-.92 1.23-1.8 1.77-4 1.77h-21.22l-2.14 12.2h24.81zm-45-34.45l-.44 2.47s-.67 1.16-3.73 1.16l5.2-29.44 3.65 1.92h41.71L843 681l5.07 4.08a8.12 8.12 0 0 1-3.72 1.54l-4 22.43a5.11 5.11 0 0 1-3.77 1.39l.53-3zm.35-2h43l1.61-9.1h-43zM841 685.55h-43l-1.54 8.79h43zM907 702.82c.71-.93 2.83-1.39 4-1.39 3.92 0 6.93 3.78 6.63 5.47-.23 1.31-1.19 2.32-4.76 3-3.89.77-14.37 4.7-22.86 8.48a12 12 0 0 1-.22 1.69c-1.75 9.95-3.19 13.65-5.38 13.65-1.09 0-1.78-1-1.41-3.09a14.54 14.54 0 0 1 .44-1.62 52.36 52.36 0 0 0 2.53-9c-7.85 3.7-16.31 8.63-17.58 15.8-.91 5.16 4.12 7.24 13.2 7.24 8.69 0 15.1-.38 16.78-1.92 4.81.23 7.32 1.07 7.12 2.23s-.69 1.7-2.81 2.16c-4.06.85-12.78 1-17.08 1-19.25 0-21.31-4.78-20.29-10.56 1.31-7.4 11.58-14.18 21-18.57.1-.54.12-1.08.22-1.7.69-6.55-2-8.32-5.1-8.32-7.75 0-18.82 9.94-27.23 19.5-2.25 2.54-3.31 3.7-4.25 3.7-.71 0-1.59-1.24-1.35-2.55.32-1.85 1.72-2.7 4.54-4.93 7.81-6.09 17.33-18 21.68-26.21-2.62.24-5.37.31-7.09.31-5.79 0-8.93-1.77-10.19-6.16l1.26-.93c1.77 3.32 4.67 4.63 10.22 4.63a64.36 64.36 0 0 0 7.36-.47c2-3.7 3-6.08 3.31-8.09s-1.82-2.54-3.78-2.54a9.06 9.06 0 0 0-1.51.15l-.15-.07a4.67 4.67 0 0 1 4.48-2.78c4 0 7.07 2.08 6.77 3.78s-1.39 1.69-2.42 3.54S881 692 880 693.8a99.22 99.22 0 0 0 15.4-3c2.06-.62 3.68-1.39 4.67-3 4.62 0 7.06.39 6.73 2.24-.18 1-2 1.38-3.86 1.92a175.8 175.8 0 0 1-24.61 4.63A93.83 93.83 0 0 1 867.18 712l.37.15c6.6-5.47 11.55-6.93 14.68-6.93 4.46 0 8.38 2.16 8 10.33 9.62-4.4 20.55-8.25 20.82-9.79.22-1.24-1-2.08-2.76-2.08a6.91 6.91 0 0 0-1.19.07zM982.53 734l-1.88 10.25c1.92.61 2.21.77 2.1 1.38-.27 1.55-2.44 2.32-8.31 2.32h-15.81c-5.56 0-6.44-.77-5.67-5.17l3.25-18.42H944a7.55 7.55 0 0 1-2.18.39c-3.4 11.33-11.22 21-31.4 25.43l-.54-1.38c17.35-4.32 25-13.26 28.33-24.44h-7.9l-.65 3.7s-.47 1.31-3.76 1.31l8.46-47.94 3.63 2h38.67l2.49-2.62 5 4.16a8.24 8.24 0 0 1-3.71 1.54l-7.14 40.46a4.76 4.76 0 0 1-3.79 1.54l.73-4.16h-9.15l-1.38.23-3.22 18.27c-.34 1.93-.27 2 2.78 2h15.81c1.41 0 2.05-.07 2.72-1.23a86 86 0 0 0 3.89-9.63zm-51.87-11.64h39.92l2-11.18h-39.95zm42.24-13.18l1.94-11h-39.91l-1.95 11zm4.18-23.74h-39.91l-1.89 10.71h39.92zM1003.16 744.75c25.8-.77 38.4-6.09 40.48-17.88 1.78-10.1-4.93-15.11-12.91-15.11-7.12 0-14.5 1.93-23.49 7.63a31.91 31.91 0 0 0-4.67 3.39c-5.28 4.63-8.19 9.17-9.76 9.17-1.95 0-2.33-1.38-2.1-2.69.46-2.63 5.64-5.4 9.4-9 10-9.17 24.85-22 34-29.51 1.17-.93 2.29-1.93 2.45-2.86.14-.77-.38-.92-1.16-.92-3.05 0-14 2.7-20.19 4.86-2.17.77-3.2 2.15-4.92 2.15-3.29 0-5.59-3.77-5.2-6a6.09 6.09 0 0 1 2.12-3.62l.92.15a2.87 2.87 0 0 0-.22.77c-.39 2.24 1.39 3.7 4.05 3.7s16.72-2.54 20.7-4.24c1.27-.54 3.1-1.61 3.73-1.61 3.29 0 6.82 3.46 6.4 5.85-.27 1.54-2.26 1.31-4.92 3.09-6.83 4.54-20.49 15.41-27.15 22.58v.15a48.42 48.42 0 0 1 20.88-5.24c11.9 0 18 7.17 16.2 17.34-2.41 13.65-14.09 19.5-44.9 19.81zM1074.19 726.71c6.5 0 10.83 5.17 9.7 11.56a14.47 14.47 0 0 1-13.78 11.56 9.49 9.49 0 0 1-9.7-11.56 14.48 14.48 0 0 1 13.78-11.56zm7.2 11.56a7.49 7.49 0 0 0-7.64-9.09 11.42 11.42 0 0 0-10.83 9.09 7.49 7.49 0 0 0 7.63 9.1 11.44 11.44 0 0 0 10.84-9.1z"/>
    </g>
    <g fill="#f10040">
        <path d="M804.83 793.16l5.32 4.47a8.5 8.5 0 0 1-4.14 1.7l-10.45 59.27a4.79 4.79 0 0 1-3.79 1.54l.84-4.78h-41.87l-.73 4.16c-.07.39-.81 1.47-3.78 1.47l11.82-67.06 3.62 2.09h40.54zm-53.74 60.2H793l3-17.42h-41.84zm48.32-36.53h-41.87l-3 17.11h41.87zm3.31-18.83h-41.87l-3 16.8h41.87zM868.8 813.82c.72-.93 2.83-1.39 4-1.39 3.91 0 6.92 3.78 6.62 5.47-.23 1.31-1.19 2.32-4.75 3-3.9.77-14.37 4.7-22.86 8.48a12 12 0 0 1-.23 1.69c-1.75 9.95-3.18 13.65-5.37 13.65-1.1 0-1.78-1-1.42-3.09.08-.46.26-1 .44-1.62a52.36 52.36 0 0 0 2.53-9c-7.85 3.7-16.31 8.63-17.57 15.8-.91 5.16 4.12 7.24 13.2 7.24 8.68 0 15.09-.38 16.77-1.92 4.81.23 7.33 1.07 7.12 2.23s-.69 1.7-2.81 2.16c-4.06.85-12.77 1-17.08 1-19.25 0-21.3-4.78-20.28-10.56 1.3-7.4 11.58-14.18 21-18.57.09-.54.11-1.08.22-1.7.68-6.55-2-8.32-5.11-8.32-7.75 0-18.81 9.94-27.23 19.5-2.25 2.54-3.31 3.7-4.25 3.7-.71 0-1.58-1.24-1.35-2.55.32-1.85 1.73-2.7 4.55-4.93 7.8-6.09 17.33-18 21.68-26.21-2.63.24-5.38.31-7.1.31-5.79 0-8.92-1.77-10.18-6.16l1.26-.93c1.76 3.32 4.66 4.63 10.22 4.63a64.5 64.5 0 0 0 7.36-.47c2-3.7 2.95-6.08 3.3-8.09s-1.82-2.54-3.78-2.54a9.17 9.17 0 0 0-1.51.15l-.14-.07a4.66 4.66 0 0 1 4.48-2.78c4 0 7.06 2.08 6.77 3.78s-1.4 1.69-2.43 3.54-2.07 3.78-3.09 5.55a99.22 99.22 0 0 0 15.4-3c2.06-.62 3.69-1.39 4.68-3 4.61 0 7.05.39 6.72 2.24-.17 1-2 1.38-3.86 1.92a175.66 175.66 0 0 1-24.6 4.63A95 95 0 0 1 829 823l.36.15c6.6-5.47 11.55-6.93 14.68-6.93 4.46 0 8.39 2.16 8 10.33 9.62-4.4 20.55-8.25 20.83-9.79.21-1.24-1-2.08-2.77-2.08a6.91 6.91 0 0 0-1.19.07zM944.34 845l-1.88 10.25c1.92.61 2.21.77 2.1 1.38-.27 1.55-2.44 2.32-8.31 2.32h-15.81c-5.56 0-6.44-.77-5.66-5.17l3.22-18.46h-12.18a7.69 7.69 0 0 1-2.18.39c-3.41 11.33-11.23 21-31.41 25.43l-.54-1.38c17.35-4.32 25-13.26 28.34-24.44h-7.91l-.65 3.7s-.47 1.31-3.75 1.31l8.45-47.94 3.64 2h38.66l2.49-2.62 5 4.16a8.24 8.24 0 0 1-3.71 1.54l-7.14 40.46a4.72 4.72 0 0 1-3.79 1.54l.73-4.16h-9.15l-1.37.23-3.22 18.27c-.34 1.93-.28 2 2.77 2h15.81c1.41 0 2-.07 2.72-1.23a86 86 0 0 0 3.89-9.63zm-51.87-11.64h39.92l2-11.18h-39.95zm42.24-13.18l1.94-11h-39.91l-1.94 11zm4.19-23.74H899l-1.89 10.71H937zM980.49 815.82H962l-7.7 43.7c-.12.7-1.2 1.47-3.78 1.47l12-68.29 3.62 2.08h17.3l2.3-2.39 4.72 3.86a7.12 7.12 0 0 1-3.3 1.38L983.64 818a4.8 4.8 0 0 1-3.78 1.47zm-18.11-2h18.47l1.36-7.71h-18.47zm45.54 24.89c-.84 1.24-1.8 1.78-3.91 1.78h-8.85l-2.9 16.51s-.69 1.23-3.74 1.23l3.12-17.72h-13c-2 6.32-5.73 12.94-15.27 17.8l-.81-1.16a29.09 29.09 0 0 0 12.56-16.64h-10.24l-.2-2h11c.29-1.23.51-2.46.71-3.62l1.36-7.71h-8.92l-.19-2h31.61l3.54-3.62 4.95 3.85c-.84 1.23-1.72 1.77-3.91 1.77h-7.36l-2 11.33h3.75l3.63-3.7zm-24.07-41.92h-18.47l-1.29 7.32h18.47zm-3.88 38c-.22 1.24-.51 2.47-.81 3.7H992l2-11.33h-12.69zm43.22-42.69l5 4.23a7.9 7.9 0 0 1-3.79 1.55l-10.06 57c-.59 3.31-1.75 5.47-7.11 6.16.55-3.15-1.51-3.46-6.21-3.85l.2-1.15h7.91c1.17 0 1.52-.24 1.69-1.16l6.89-39.08h-19.29L998 818c0 .08-.77 1.23-3.74 1.23l4.64-26.35 3.58 1.92h18.15zm-24.42 21.73h19.33l1.36-7.71h-19.33zm22.33-17h-19.33l-1.29 7.32h19.33zM1046.92 825.46c-2.62 4.24-7 11-9.22 14.56-1.4 2.16-3 4.94-3.23 6.32-.11.62.17 3.47 0 4.17a1.44 1.44 0 0 1-1.57 1.38c-3.13 0-7.7-5.62-5.09-20.42a74.78 74.78 0 0 1 5.52-17.11c2-4.78 4-8.71 4.51-11.79.36-2.08.52-5.63-2.22-5.63v-.23a3.25 3.25 0 0 1 2.56-1.16c2.19 0 5.68 2.85 4.79 7.86-.22 1.24-1.07 2.09-2.16 3.4-2.08 2.46-8.51 15.41-10.25 25.28-1 5.54-.83 10.48 1.28 10.48.94 0 9.76-12.72 13.24-17.81zM1071 795a4.69 4.69 0 0 1 4.31-2.69c2.66 0 7.77 1.69 7.24 4.7-.21 1.15-1 1.92-1.47 4.78s-1 6.24-1.77 11.79c8.15-1.39 9.82-2.85 10.32-3.93 3 .15 6.47.15 6.16 1.92-.25 1.39-2 1.78-4.91 2.55a98.33 98.33 0 0 1-11.82 2.23c-.65 4.55-1.37 9.1-2.35 14.65-2.11 11.94-8 21.58-27.45 27.82l-.88-1.62c16.38-6.4 22.7-14.26 25.23-28.59.62-3.55 1.37-7.79 2-11.79-4.07.46-8.89.69-11.78.69-3.92 0-7.88-1.93-9.29-4.16l1.19-1.39a11.93 11.93 0 0 0 8.45 3.08 84.89 84.89 0 0 0 11.75-.92c1-7.17 1.73-13.8 1.44-15.73-.4-2.62-2.31-3.31-4.35-3.31a16.33 16.33 0 0 0-1.82.15zM1111.52 837.71a9.5 9.5 0 0 1 9.7 11.56 14.48 14.48 0 0 1-13.78 11.56c-6.5 0-10.83-5.16-9.7-11.56a14.47 14.47 0 0 1 13.78-11.56zm7.19 11.56a7.49 7.49 0 0 0-7.63-9.09 11.43 11.43 0 0 0-10.84 9.09 7.5 7.5 0 0 0 7.63 9.1 11.43 11.43 0 0 0 10.84-9.1z"/>
    </g>
    <g fill="#f10040">
        <path d="M805.35 641.5l4.64 4.31a7.13 7.13 0 0 1-3.49 1.19c-4.81 22.81-10 42.62-14.39 46.09-2.48 2.08-4.67 2.93-9.38 3a2.1 2.1 0 0 0-.92-2.31 51.63 51.63 0 0 0-9-1.46l.35-1.54c4.1.31 10.38.61 13 .61a4.53 4.53 0 0 0 3.56-1.07c3.65-2.93 8.46-21.82 13.24-44h-28.27C769.9 664.54 761.1 682.5 736 696l-.85-1.39c22.76-13.26 31.18-30.37 35.83-48.32h-26.11l-.27-2h26.84c1.51-6.32 2.63-12.72 3.76-19.11l7.25.61c-.35 1.08-1 1.7-3.71 1.93-1.12 5.47-2.17 11-3.54 16.57h27.39zM868.78 648.82c.71-.93 2.82-1.39 4-1.39 3.91 0 6.92 3.78 6.63 5.47-.24 1.31-1.2 2.32-4.76 3-3.89.77-14.37 4.7-22.86 8.48a12 12 0 0 1-.22 1.69c-1.76 9.95-3.19 13.65-5.38 13.65-1.1 0-1.78-1-1.41-3.09a14.54 14.54 0 0 1 .44-1.62 54.23 54.23 0 0 0 2.53-9c-7.86 3.7-16.32 8.63-17.58 15.8-.91 5.16 4.12 7.24 13.2 7.24 8.69 0 15.09-.38 16.77-1.92 4.82.23 7.33 1.07 7.12 2.23s-.69 1.7-2.8 2.16c-4.07.85-12.78 1-17.08 1-19.26 0-21.31-4.78-20.29-10.56 1.3-7.4 11.58-14.18 21-18.57.1-.54.11-1.08.22-1.7.69-6.55-2-8.32-5.11-8.32-7.74 0-18.81 9.94-27.23 19.5-2.24 2.54-3.31 3.7-4.25 3.7-.7 0-1.58-1.24-1.35-2.55.33-1.85 1.73-2.7 4.55-4.93 7.8-6.09 17.33-18 21.68-26.21-2.62.24-5.38.31-7.1.31-5.79 0-8.92-1.77-10.18-6.16l1.26-.93c1.76 3.32 4.66 4.63 10.22 4.63a64.5 64.5 0 0 0 7.36-.47c2-3.7 2.95-6.08 3.3-8.09s-1.82-2.54-3.77-2.54a9.3 9.3 0 0 0-1.52.15l-.14-.07a4.66 4.66 0 0 1 4.48-2.78c4 0 7.07 2.08 6.77 3.78s-1.4 1.69-2.43 3.54-2.07 3.78-3.09 5.55a99 99 0 0 0 15.4-3c2.07-.62 3.69-1.39 4.68-3 4.62 0 7 .39 6.73 2.24-.18 1-2.05 1.38-3.86 1.92a176.07 176.07 0 0 1-24.61 4.63A93.83 93.83 0 0 1 829 658l.36.15c6.6-5.47 11.56-6.93 14.69-6.93 4.46 0 8.38 2.16 8 10.33 9.61-4.4 20.55-8.25 20.82-9.79.22-1.24-1-2.08-2.77-2.08a6.73 6.73 0 0 0-1.18.07zM907.58 666.31l2.48-2.54 5 4.16a7.84 7.84 0 0 1-3.7 1.47l-3.77 21.35c-.5 2.85-1.35 4.54-6.71 5.24.46-2.62-1.27-3-5.47-3.16l.2-1.16h6.89c1.09 0 1.43-.15 1.58-1l1.23-6.94H886.9l-2 11.1a4.26 4.26 0 0 1-3.11 1.23h-.63l5.58-31.67 3.58 1.92zm4.82-7.39l3.12-3 4.65 3.31c-.83 1.16-1.78 1.7-3.89 1.7h-33.5l-.2-2h11a2.06 2.06 0 0 1-1-.78 17.83 17.83 0 0 0-1.12-9.63l1-.46c3.63 2.93 4.52 5.86 4.14 8a3.36 3.36 0 0 1-2.15 2.86h9.78c1.81-3.16 4.08-7.56 5.52-10.87h-23l-.19-2H901l1.14-6.47 3.09.23a17.2 17.2 0 0 0-3.07-5.7h-5.4a54.3 54.3 0 0 1-10.15 9.63l-1.09-.92c4.34-3.82 9.53-10.65 13.48-17.82l5.09 2.24c-.53.77-1.22 1.15-2.91.92-.85 1.31-1.79 2.62-2.8 3.93h17.06l3.25-3.31 4.61 3.55c-.92 1.23-1.8 1.77-3.91 1.77H905c3.48 2 4.39 4.39 4.09 6.09a2.46 2.46 0 0 1-2.19 2.23c-.32 0-1.21-.23-1.35-.77h-.24l-.81 4.35h8.14l3.1-2.92-.92-1c4.85-3.54 10.75-9.94 15.3-17.11l4.94 2.63a2.15 2.15 0 0 1-1.81.92 6.23 6.23 0 0 1-1.14-.16c-1 1.24-2 2.47-3.08 3.7h21.75l3.64-3.77 5.17 4c-.85 1.23-1.88 1.77-4 1.77h-18.07c3.73 1.93 4.62 4.39 4.31 6.16a2.58 2.58 0 0 1-2.29 2.32 2.28 2.28 0 0 1-1.37-.62 15.71 15.71 0 0 0-3.94-7.86h-7.12A51.13 51.13 0 0 1 916 643l4.59 3.31c-.84 1.16-1.71 1.7-3.83 1.7h-6.49l5.24 1.77c-.46.85-1.36 1.08-3 1a101.09 101.09 0 0 1-6.36 8.1zm-25.15 22.81h18.39l1.05-5.94h-18.4zM908 668.32h-18.39l-1 5.47H907zm40.27 14.41l-1.38 7.86c2 .54 2.38.7 2.26 1.39-.28 1.54-2.29 2.31-8.47 2.31h-16.52c-5.63 0-6.47-1-5.66-5.62l5.18-29.37 4.1 2.08h18.54l1.08-6.09h-19.49l-.16.93c0 .08-.68 1.16-3.73 1.16l3.15-17.89 6.41.54c-.26 1-1.05 1.47-3.28 1.7l-.68 3.85h18.24l3.55-3.7 5 3.93c-.93 1.24-1.88 1.78-4 1.78h-23.14l-1 5.7h18.87l2.1-2.16 4.46 3.55a5.73 5.73 0 0 1-2.88 1.23l-1.47 8.32c-.13.31-1.42 1.39-3.76 1.39l.39-2.23h-19.5l-.92 5.24h14.71l2.51-2.7 3.78 3a4 4 0 0 1-3.75 1.69h-17.6l-.93 5.24H939l2.58-2.7 3.78 3c-.83 1.16-1.71 1.7-3.74 1.7h-17.69l-.94 5.31h15.42l2.68-2.77 3.91 3.1c-.83 1.16-1.79 1.7-3.82 1.7h-18.54l-.63 3.54c-.41 2.32-.26 2.39 2.71 2.39h16c1.33 0 2.28-.07 3-.84s2-3.4 3.76-7.56zM1007.06 632.25c-.26 1.46-5.09 11.56-5.86 13.26 16.21.84 22.74 11.25 20.6 23.43-2.34 13.25-14.3 21.58-39.3 23.58l-.2-2c22.18-2.39 33.22-9.95 35.26-21.51 2.13-12.1-4-20.58-17.55-21.19-5.34 10.32-13 20.73-19 26.43 1.29 1.16 3.07 3 2.83 4.4-.19 1.08-1.11 1.38-2.05 1.38s-2.49-1.38-3.86-2.92c-5.58 4.54-10 7.63-15.82 7.63-3.84 0-7.22-3.47-5.86-11.18 1.22-6.94 7.29-14.26 15-19.35-.06-1.84 0-4.24.06-6.08.56-9.41.36-12.26-4-12.64l-.11-.31a5.15 5.15 0 0 1 3.82-1.24c3.45 0 5.23 2.32 4.71 5.71-.16.92-.43 2-.66 3.31a46.31 46.31 0 0 0-.72 9.41c6.75-3.7 14.69-6.56 23-6.94 3.91-8.4 4.44-11.41 4.54-12 .47-2.62-.56-3.46-3.26-3.23l-.24-.85a6.86 6.86 0 0 1 3.9-1.69c5.16 0 5.29 1.92 5 3.62zm-30.83 42.54c-3-4.78-4.45-11.56-4.91-17.88-6.56 4.86-10.89 11.18-11.91 17-.77 4.39 1.19 7 4.56 7 3.03-.03 6.63-1.26 12.26-6.12zm-1.88-20c.3 5.86 1.47 13.41 4.74 17.5a89 89 0 0 0 17.1-24.59 46.21 46.21 0 0 0-21.84 7.13zM1042.16 690.75c25.8-.77 38.4-6.09 40.48-17.88 1.78-10.1-4.93-15.11-12.91-15.11-7.12 0-14.51 1.93-23.49 7.63a31.91 31.91 0 0 0-4.67 3.39c-5.28 4.63-8.19 9.17-9.76 9.17-2 0-2.34-1.38-2.11-2.69.47-2.63 5.65-5.4 9.41-9 10-9.17 24.84-22 34-29.51 1.18-.93 2.3-1.93 2.46-2.86.14-.77-.38-.92-1.17-.92-3.05 0-14 2.7-20.18 4.86-2.17.77-3.2 2.15-4.92 2.15-3.29 0-5.6-3.77-5.2-6a6.09 6.09 0 0 1 2.12-3.62l.91.15a3.21 3.21 0 0 0-.21.77c-.39 2.24 1.38 3.7 4 3.7s16.73-2.54 20.71-4.24c1.27-.54 3.1-1.61 3.73-1.61 3.28 0 6.82 3.46 6.4 5.85-.27 1.54-2.27 1.31-4.93 3.09-6.83 4.54-20.48 15.41-27.15 22.58l.06.15a48.42 48.42 0 0 1 20.88-5.24c11.89 0 18 7.17 16.19 17.34-2.4 13.65-14.08 19.5-44.89 19.81zM1113.19 672.71a9.5 9.5 0 0 1 9.7 11.56 14.48 14.48 0 0 1-13.78 11.56c-6.5 0-10.83-5.16-9.7-11.56a14.47 14.47 0 0 1 13.78-11.56zm7.19 11.56a7.48 7.48 0 0 0-7.63-9.09 11.43 11.43 0 0 0-10.84 9.09 7.5 7.5 0 0 0 7.63 9.1 11.42 11.42 0 0 0 10.84-9.1z"/>
    </g>
    <g fill="#f10040">
        <path d="M765.27 1004.7l4.77 4a7.17 7.17 0 0 1-3.39 1.46l-10.13 57.5c-.59 3.31-1.84 5.55-7.66 6.16.59-3.39-2.43-3.54-7.24-3.77l.2-1.16h9.31c1.26 0 1.69-.23 1.87-1.23l4-22.51h-13.18c-2.48 10-6.2 20.5-12.55 29l-1.35-.77c8-13.49 11.08-30 13.69-44.78l4.14-23.5 4 2.15H763zm-17.82 22c-1.19 6.78-2 11.18-3.2 16.42h13.07l2.89-16.42zm15.85-17.49h-12.76l-2.73 15.49h12.75zm35 36.61l3.87 4.24c-.73.61-1.62.77-3.51.84a50.48 50.48 0 0 1-13.28 12.26 49.44 49.44 0 0 0 18.38 7.17l-.23.84a4.8 4.8 0 0 0-3.77 2.78c-7.08-2-13-4.86-17.54-8.86-6.87 3.93-15 6.78-24.55 8.78l-.22-1.46a80.75 80.75 0 0 0 22.77-9.25 27.42 27.42 0 0 1-6.46-10.87 72.64 72.64 0 0 1-13.64 10.33l-.63-1.31a77.7 77.7 0 0 0 19.74-20.5h-5.4l-.34 1.92c0 .08-.77 1.24-3.74 1.24l4.35-24.67a53 53 0 0 1-7.66 7l-1-.85c5.17-4.93 11.25-13.64 15.73-22.66l5.79 2.24c-.46.84-1.16 1.23-2.93 1.07a70.12 70.12 0 0 1-4 6h24.42l3.74-3.94 5.29 4.17c-.84 1.23-1.8 1.77-4 1.77h-31c-1.33 1.77-2.8 3.47-4.26 5.09l3.51 1.85h24l2.11-2.16 4.46 3.54a5.25 5.25 0 0 1-2.88 1.24l-3.24 18.34a5 5 0 0 1-3.77 1.46l.47-2.69h-15.1l1.74.77a2.22 2.22 0 0 1-2 .92 6.48 6.48 0 0 1-1.09-.07 47.25 47.25 0 0 1-4.78 5.85h17.45zm-22.9-13.95l-1.22 6.93h25l1.23-6.93zm.36 18.42l-.58.61a25.15 25.15 0 0 0 7.77 10.49 48.1 48.1 0 0 0 11.51-11.1zm26.24-27.17h-25l-1.19 6.78h25zM869.22 1026.82c.71-.93 2.83-1.39 4-1.39 3.92 0 6.93 3.78 6.63 5.47-.23 1.31-1.19 2.32-4.76 3-3.89.77-14.36 4.7-22.86 8.48a12 12 0 0 1-.22 1.69c-1.75 10-3.18 13.65-5.38 13.65-1.09 0-1.78-1-1.41-3.09.08-.46.26-1 .44-1.62a52.36 52.36 0 0 0 2.53-9c-7.85 3.7-16.31 8.63-17.58 15.8-.91 5.16 4.13 7.24 13.21 7.24 8.68 0 15.09-.38 16.77-1.92 4.81.23 7.32 1.07 7.12 2.23s-.69 1.7-2.81 2.16c-4.06.85-12.77 1-17.08 1-19.25 0-21.3-4.78-20.29-10.56 1.31-7.4 11.58-14.18 21.05-18.57.09-.54.11-1.08.22-1.7.68-6.55-2-8.32-5.11-8.32-7.75 0-18.81 9.94-27.23 19.5-2.25 2.54-3.31 3.7-4.25 3.7-.71 0-1.58-1.24-1.35-2.55.32-1.85 1.72-2.7 4.54-4.93 7.81-6.09 17.34-18 21.69-26.21-2.63.24-5.38.31-7.1.31-5.79 0-8.92-1.77-10.18-6.16l1.25-.93c1.77 3.32 4.67 4.63 10.22 4.63a64.36 64.36 0 0 0 7.36-.47c2-3.7 3-6.08 3.31-8.09s-1.82-2.54-3.78-2.54a9.06 9.06 0 0 0-1.51.15l-.15-.07a4.68 4.68 0 0 1 4.49-2.78c4 0 7.06 2.08 6.76 3.78s-1.39 1.69-2.42 3.54-2.08 3.78-3.09 5.55a99.22 99.22 0 0 0 15.4-3c2.06-.62 3.68-1.39 4.67-3 4.62 0 7.06.39 6.73 2.24-.17 1-2 1.38-3.86 1.92a175.8 175.8 0 0 1-24.61 4.63 93.83 93.83 0 0 1-11.17 15.41l.37.15c6.6-5.47 11.55-6.93 14.68-6.93 4.46 0 8.39 2.16 8 10.33 9.62-4.4 20.55-8.25 20.82-9.79.22-1.24-1-2.08-2.76-2.08a6.91 6.91 0 0 0-1.19.07zM884.5 1052.48c.86 0 1.09 0 2.08-1.61 0 0 1.73-2.7 20.32-33.15l1.5.39c-5.14 9.63-15.12 27.59-16.9 31.06a27.15 27.15 0 0 0-2.32 6.47c-.53 3 .4 6.63-.55 12-.38 2.16-1.2 6.32-4.56 6.32-1.25 0-1.53-1.54-1.12-3.86a69.52 69.52 0 0 0 1.75-7.24c1.41-8-.34-8.32-4-8.63l.31-1.78c2.59 0 3.46-.07 3.46-.07zm1.14-29.13c8.5 1.08 10.65 4.86 10.22 7.32a2.65 2.65 0 0 1-2.37 2.31 2.56 2.56 0 0 1-1.4-.46c-.81-3-4-6.55-7-8.32zm6.64-19.88c8.86 1.69 11.12 5.7 10.67 8.24a2.56 2.56 0 0 1-2.42 2.24 2.67 2.67 0 0 1-1.41-.46c-.85-3.16-4.29-7.17-7.46-9.18zm64.71 24c-.85 1.24-1.8 1.78-4 1.78h-22.53l-1.68 9.48h17.54l2.48-2.55 5 4.09a8.24 8.24 0 0 1-3.71 1.54l-4.62 26.19c-.57 3.23-1.83 5.47-7.41 6.08.58-3.31-1.82-3.46-6.76-3.85l.19-1.08h8.69c1.25 0 1.6-.23 1.78-1.23l4.79-27.13h-18.32l-3.33 18.88h8.06l2.42-13.72 5.71.47c-.23.84-.76 1.23-2.51 1.38l-3 17c0 .15-.8 1.46-3.78 1.46l.82-4.62H913.4l-.62 3.54c0 .16-.86 1.77-3.84 1.77l3.71-21 5.71.47c-.23.84-.75 1.15-2.51 1.38l-2.1 11.87h7.83l3.33-18.88h-17.14l-5.65 32.06s-.62 1.31-3.76 1.31l6.6-37.38 3.63 2h16.67l1.67-9.48h-22.69l-.2-2h14.8l2-11.64h-12l-.19-2h12.52l1.86-10.56 7.25.62c-.31 1.31-1.33 1.77-4.21 2.16l-1.38 7.78h13.7l1.86-10.56 7.25.62c-.31 1.31-1.33 1.77-4.22 2.16l-1.37 7.78h6.42l3.9-3.93 5.29 4.16c-.84 1.23-1.72 1.77-3.91 1.77h-12l-2 11.64h8.21l3.83-3.93zm-34.63-.23h13.69l2.06-11.64h-13.7zM964.63 1020.27c.86 2.23 2.27 3.54 5.56 3.54a52.16 52.16 0 0 0 9.61-1.23 59.87 59.87 0 0 0 3.25-9.56c.71-4-.62-4-3-4a6.16 6.16 0 0 0-2.25.3l-.22-.54c.64-.92 1.88-2.62 5.32-2.62 2.74 0 7.23 1.62 6.78 4.17-.25 1.38-1.32 1.69-2.08 2.92s-3.39 7.25-4 8.64c4.39-.93 10.51-2.78 12.64-4.24a10.77 10.77 0 0 0 3.1-2.93l.72-.08c2.49.08 6.46-.23 6.08 1.93-.29 1.62-3.36 2.62-8 4.16a157.59 157.59 0 0 1-15.69 4.16c-5.19 11.25-19.29 38.39-22.08 42.7a4.78 4.78 0 0 1-3.46 2.31c-1 0-1.3-.61-1-2.15.19-1.08.7-2.62 1.29-4.63a69.62 69.62 0 0 0 8.93-12.49c3.38-5.85 9.9-18.42 12.46-25a51.77 51.77 0 0 1-9 1.16c-4.54 0-6.62-2.85-6.09-5.86zm28.56 26.67c-2.13 2.77-3.93 5.85-4.43 8.7-1.54 8.71 8.87 8.71 14.9 8.71 3 0 5-.07 6.93-.23 1.5-.07 2.83-.54 3.46-.54 2.35 0 4.67 1 4.42 2.47-.33 1.85-4.22 2.16-10.87 2.16-6.34 0-15.68-.31-19.16-3.62-2.09-1.93-2.83-4.86-2.25-8.1a20.14 20.14 0 0 1 5.79-10.25zm7.7-8.17a129 129 0 0 1 11.38-7.25c-6.07-.23-11.44.93-18.61 4.32l-.78-1.31c7.7-5.09 15-6.4 22.49-6.4 4.23 0 7.53 1.7 7.26 3.24a1.19 1.19 0 0 1-1.3 1.15c-.87 0-2.05-.38-3.22-.38-4.15 0-11.28 4.47-16.08 7.7zM1045.75 1014.8a5.63 5.63 0 0 1 3.83-2.16c2.66 0 6.94 2.31 6.51 4.78-.3 1.69-1.48 2.62-2.11 4.85-.73 2.39-2 6.78-2.78 10.87 6.33-1.7 21.25-5.09 28.29-6.4 1.39-8.32 2-12.41 2-14.72 0-3.31-3.42-3.7-4.75-3.7a4.92 4.92 0 0 0-1.11.08l-.15-.46a5.26 5.26 0 0 1 4.13-2.16c4.08 0 6.91 2.54 6.6 4.31-.15.85-1.08 2.16-1.57 4.94l-.21 1.15c-.35 2-.94 5.78-1.61 10 5.79-.84 10.07-1.15 11.5-3.08 5 .85 8 2.47 7.68 4.39-.18 1-1.4 1.31-2.73 1.31s-6.64-.54-7.89-.54a77.59 77.59 0 0 0-9.11.62l-.87 4.93c-1.07 6.09-4.19 20.2-10.84 20.2-.94 0-2-1.31-2.46-2-1-1.54-4.6-3.23-8.85-5.32l1-1.54c5.06 1.93 9 3.47 10.58 3.47 3.68 0 6.3-6 8.34-19.34a255 255 0 0 0-28.6 6.39c-.77 3.47-2 9.71-2.76 14.34-2.26 12.79 3.37 15.49 16.52 15.49 11 0 14-.62 15.23-1.62 4.81.7 6.41 1.39 6.22 2.47-.39 2.23-6.14 2.39-19.75 2.39-17.85 0-23.46-5-21-19.19l1.14-6.48c.44-2.46.86-4.85 1.22-6.47a60 60 0 0 0-8.54 3.16 10.83 10.83 0 0 1-3.88 1.62c-2.82 0-5.79-4-5.36-6.48a4.72 4.72 0 0 1 2.34-3.47l.14.08c-.39.46-.34 5 3.89 5 1.72 0 7.77-1.46 12-2.62.74-3.31 2.4-11.87 2.5-12.41.69-3.93.32-5.39-1.29-6a7.7 7.7 0 0 0-3.37-.39zM1115.88 1050.71a9.5 9.5 0 0 1 9.7 11.56 14.47 14.47 0 0 1-13.78 11.56 9.49 9.49 0 0 1-9.7-11.56 14.48 14.48 0 0 1 13.78-11.56zm7.19 11.56a7.48 7.48 0 0 0-7.63-9.09 11.44 11.44 0 0 0-10.84 9.09 7.5 7.5 0 0 0 7.64 9.1 11.42 11.42 0 0 0 10.83-9.1z"/>
    </g>
    <g fill="#f10040">
        <path d="M738.92 1122l4.12-4.24 5.71 4.47c-.83 1.16-1.81 1.77-4.07 1.77h-65l-.2-2h32.48l3-17.11h-23.73l-.2-2h24.26l2.7-15.26h-22.86l-.19-2h41.95l3.69-3.62 5.27 3.85c-.85 1.24-1.8 1.78-4 1.78h-20.34l-2.69 15.26h16.35l3.79-3.7 5.49 3.93c-.85 1.23-1.8 1.77-4 1.77h-22l-3 17.11zm-56.09-34.3c14.23-7.47 33.09-21.65 39.65-32.68l8.07 1.31c-.39.85-1.4 1.24-3.22 1.39 6.71 9.87 18.12 19.73 31.06 26.21l-.34 1.07a6.67 6.67 0 0 0-4.76 3c-12.21-7.55-22.61-18.65-27.59-29.52-9.33 10.79-27.19 23.28-42.45 30.37zM763.35 1067c-.15 2.16 1.73 3.93 4.31 3.93a44.32 44.32 0 0 0 6.32-.77c6.32-1.24 26.65-4.63 38.37-5.86a11.69 11.69 0 0 0 5.23-1.7c5.87 1.31 7.69 2.55 7.35 4.47-.17.93-1.15 1.16-2.55 1.16-1.8 0-4.32-.38-6.75-.38-7.9 0-20.65 8.4-26.36 15.49a38.68 38.68 0 0 0-8.11 17.57c-2.12 12 5.15 14.72 14.09 16a12.75 12.75 0 0 0 1.79.08c.94 0 2-.08 2.75-.08 2.51 0 4.66 2 4.37 3.63-.18 1-1.1 1.38-3 1.38-.71 0-1.63-.07-2.72-.15-19.79-2.24-23.07-8.48-20.82-21.27 3.13-17.73 20.89-28.83 29.23-33.07v-.23c-9.12.7-31.79 5-36.19 7.79a7.15 7.15 0 0 1-3.69 1.38c-3.29 0-6.23-4.16-5.85-6.32a4.25 4.25 0 0 1 1.79-3.08zM853.56 1072.34a1.53 1.53 0 0 1-1.19.54 3.57 3.57 0 0 1-.83-.15 123.57 123.57 0 0 1-11.77 9l-.14-.08a144.71 144.71 0 0 1-5.32 20.43c8.5 4.16 10.6 9.09 10.1 11.94-.25 1.39-1.1 2.24-2.12 2.24a2.17 2.17 0 0 1-1.39-.54c-.49-3.86-3.84-8.87-7.09-12.18-3.51 9.25-8.33 16.65-16 22.58l-.93-1.38c12.68-11.1 16.6-27.6 20.87-51.8 1-5.47 1.92-11.33 3-17.65l6.88.46c-.26 1-.83 1.62-3.55 1.93-1.5 8.09-2.72 15.42-4.07 22.2a116.52 116.52 0 0 0 9.09-10.71zm-20.93-.23a43.7 43.7 0 0 1-.59 7.33c-1.53 8.7-5.55 11.48-7.66 11.48a1.39 1.39 0 0 1-1.5-1.7 5.15 5.15 0 0 1 2-2.69c1.95-1.7 5.34-7.17 6.46-14.42zm56.92 40.24l-1.61 8.71c1.78.53 2.07.69 2 1.31-.27 1.54-2.21 2.31-7.22 2.31h-10.29c-4.62 0-5.24-.93-4.48-5.24l3.54-20h-9a7.63 7.63 0 0 1-2.34.38c-3.22 10.72-9.45 21.2-23.85 26.52l-.6-1.47c12.26-5.16 17.73-14.87 20.53-25.43h-13l-.19-2h11l2.16-12.25h-10.1l-.19-2h10.64l2-11.57 6.71.54c-.28 1.16-1.14 1.62-3.63 1.93l-1.6 9.1h19.57l2-11.57 6.71.54c-.28 1.16-1.15 1.62-3.63 1.93l-1.6 9.1h4.38l3.64-3.78 5.09 4c-.85 1.23-1.8 1.77-3.92 1.77h-9.54l-2.16 12.25h4.69l3.73-3.85 5.23 4.09c-.84 1.23-1.8 1.77-4 1.77h-13.88l-1.37.23-3.51 19.88c-.35 2-.27 2 1.76 2h9.86a2.14 2.14 0 0 0 2.12-.93 84.64 84.64 0 0 0 3.49-8.24zM854 1066.26l-.2-2h17.85l1.66-9.4 7.1.54c-.29 1.23-1.26 1.85-4 2.08l-1.2 6.78h12.13l3.55-3.7 5.1 3.93c-.85 1.24-1.8 1.78-3.92 1.78h-17.24l-1.7 9.63c0 .15-.73 1.47-3.78 1.47l1.95-11.1zm3.59 31.13h19.48l2.16-12.25h-19.47zM955.17 1076.2a12.16 12.16 0 0 0 4.58 1.08c.39 0 2.23-.23 2.63-.23 1 0 1.68.23 1.53 1.08-.45 2.54-13.79 5.85-24.61 7.7 1.38 5.09 5.42 10.1 8.42 11.33 2 .85 3 2.16 2.69 3.78a2.57 2.57 0 0 1-2.48 2.08c-1 0-2.07-1.08-3.23-1.62-2-1-6-2.16-11.75-2.16-15.11 0-20.31 5.55-21.11 10.1-1.2 6.78 5.87 9.33 20.19 9.33 7.2 0 10.64-1.31 12.05-1.31 2.89 0 5.3.53 5 2.31s-7.07 2.77-17.4 2.77c-17.6 0-24.9-4.31-23.37-13 1.21-6.86 11.32-12.26 24.94-12.26a50 50 0 0 1 9.75 1.08l.44-.31a23.74 23.74 0 0 1-7-11.48c-7.59 1.31-15.09 2.54-20.25 2.54-5.87 0-10-1.38-12.34-5l1.22-1.15c2.66 3.08 7.25 3.7 11.24 3.7a105 105 0 0 0 19.43-2.32 85 85 0 0 1-1.59-10.55 99.33 99.33 0 0 1-14.45 1.61c-4.07 0-6.29-1.15-8.63-3.85l1.16-1.23a11.11 11.11 0 0 0 7.65 2.77 93.91 93.91 0 0 0 14-1.62c-.25-2.15-.41-4.78-.57-6.55-.3-3.62-2.61-3.85-3.86-3.85s-2.69.15-3.37.92l-.43-.23c.31-3.08 4.22-3.93 6.95-3.93 3.6 0 5.24 1.39 5 2.7-.14.77-.3 1.23-.42 1.93a58.36 58.36 0 0 0 0 8.47c5.41-.92 14.25-2.69 14.77-5.62.87-.08 1.67-.16 2.37-.16 1.49 0 4 .23 3.71 1.62-.16.93-1.47 1.7-4.78 2.7a136.3 136.3 0 0 1-16 3.78 51.19 51.19 0 0 0 1.6 10.48 73.64 73.64 0 0 0 13.54-3.55c1.5-.54 2.44-1 2.54-1.54.07-.38-.26-.77-.94-1.31zM1023.55 1081.44h-15.89c1.7 9 7.56 21 26.08 29.67l-.39.85c-1.89.08-3.26.31-4.23 2.24-17.92-9.33-22-23.2-23.18-32.76h-26.06c-2.62 11.33-7.56 24.66-19 34.68l-1.09-.92c11.57-12.33 15.6-27.21 18-41.08l2.9-16.49 3.93 2.15h41.95l2.4-2.54 5.07 4.08a8.12 8.12 0 0 1-3.71 1.55l-3.9 22.11a5.06 5.06 0 0 1-3.77 1.39zm-47.06 29.9c26.88 3.32 33.31 10.33 32.78 13.34a1.84 1.84 0 0 1-2 1.46 4 4 0 0 1-.91-.15c-4.48-4.32-15.81-10.18-30.45-13.26zm7-49.55l-2.15 12.21c-.3 1.7-.62 3.55-1 5.4h43.59l3.12-17.65zm3 32.83c15.91 2.54 20.15 8.63 19.65 11.48a1.81 1.81 0 0 1-1.84 1.54 2.66 2.66 0 0 1-1-.23c-2.84-4.31-11.1-9.4-17.14-11.56zM1067.76 1058.93a4.2 4.2 0 0 1 3.58-2.08c3.83 0 9.08 2.62 8.55 5.63-.15.85-2.19 1.31-4.28 2.54-7.32 4.24-23.49 15.57-28.67 20.12a9.18 9.18 0 0 0-2.88 4.78c-.3 1.69.63 3.08 4.49 5.62 16.15 10.49 24.66 22.12 23.94 26.21-.24 1.39-1.43 2.77-2.68 2.77-1 0-2.2-1.69-3.23-3.85-3.42-7.24-11-17-21.26-23.66-3.09-2-4.78-4-4.23-7.09a11.71 11.71 0 0 1 4.18-6.4c5.54-4.78 17.19-13.64 23.84-18.5 1.52-1.08 3-2.85 3.16-3.7.31-1.77-3-2.31-4.24-2.15zM1099 1066.8a5.59 5.59 0 0 1 3.82-2.16c2.66 0 7 2.31 6.51 4.78-.3 1.69-1.48 2.62-2.1 4.85-.74 2.39-2 6.78-2.78 10.87 6.32-1.7 21.24-5.09 28.28-6.4 1.39-8.32 2-12.41 2-14.72 0-3.31-3.41-3.7-4.75-3.7a4.78 4.78 0 0 0-1.1.08l-.16-.46a5.28 5.28 0 0 1 4.14-2.16c4.07 0 6.91 2.54 6.59 4.31-.15.85-1.08 2.16-1.57 4.94l-.2 1.15c-.36 2-.94 5.78-1.61 10 5.78-.84 10.06-1.15 11.5-3.08 5 .85 8 2.47 7.67 4.39-.17 1-1.4 1.31-2.73 1.31-1.17 0-6.64-.54-7.89-.54a77.59 77.59 0 0 0-9.11.62l-.87 4.93c-1.07 6.09-4.18 20.2-10.84 20.2-.94 0-2-1.31-2.46-2-1-1.54-4.6-3.23-8.85-5.32l1-1.54c5.06 1.93 9 3.47 10.58 3.47 3.68 0 6.3-6 8.34-19.34a256 256 0 0 0-28.6 6.39c-.76 3.47-1.94 9.71-2.76 14.34-2.25 12.79 3.37 15.49 16.52 15.49 11 0 14-.62 15.24-1.62 4.8.7 6.4 1.39 6.21 2.47-.39 2.23-6.13 2.39-19.75 2.39-17.84 0-23.45-5-21-19.19l1.14-6.48c.43-2.46.85-4.85 1.22-6.47a60 60 0 0 0-8.54 3.16 10.93 10.93 0 0 1-3.89 1.62c-2.82 0-5.79-4-5.35-6.48a4.73 4.73 0 0 1 2.33-3.47l.14.08c-.39.46-.33 5 3.89 5 1.73 0 7.78-1.46 12-2.62.74-3.31 2.41-11.87 2.5-12.41.7-3.93.33-5.39-1.29-6a7.7 7.7 0 0 0-3.37-.39z"/>
    </g>
    <g fill="#f10040">
        <path d="M773.89 8.82l5.37 4.18c-.83 1.15-1.8 1.77-4.07 1.77h-41.94a110.13 110.13 0 0 1-10 11.1l1.58.77h16.44l1.66-9.4 6.48.54c-.34 1-1.12 1.46-3.36 1.69l-1.26 7.17h17.3l2.48-2.54 5 4.08a7.15 7.15 0 0 1-3.71 1.54l-3 17c-.57 3.24-1.83 5.47-7.42 6.09.59-3.32-1.81-3.47-6.75-3.86l.19-1.08h8.69c1.25 0 1.62-.3 1.78-1.23l3.17-18h-18.1l-4.94 28c0 .16-.74 1.54-3.79 1.54l5.21-29.52h-17.38l-4.08 23.13c0 .07-.7 1.31-3.59 1.31l4.31-24.44a87.82 87.82 0 0 1-17.06 12l-.64-1.23c10.33-6.25 19.69-15.34 26.72-24.59h-22.47l-.19-2h24.18a98.76 98.76 0 0 0 6.31-10L742.8 5a2.44 2.44 0 0 1-2.31 1 5.24 5.24 0 0 1-1.08 0c-1.32 2.16-2.9 4.47-4.64 6.79h35.3zm-1.54-18.35a2.37 2.37 0 0 1-1.75.62 7.17 7.17 0 0 1-2-.39c-4.25 1.93-9.31 4-14.82 5.94 13.22 4.47 16.5 8.71 16.16 10.63a1.45 1.45 0 0 1-1.61 1.16 3.15 3.15 0 0 1-1.71-.54C762.13 4.5 756 1.42 748.15-1.44a230.1 230.1 0 0 1-38.35 9.33l-.12-1.54a238.51 238.51 0 0 0 34.11-9.25C737-5.06 729-7.14 720-9.07l.69-1.69a236.16 236.16 0 0 1 28.46 5.93 123.52 123.52 0 0 0 18.54-8.4zM839.42 49.9l5.43 4.23c-.83 1.16-1.8 1.78-4.07 1.78h-67.54l-.19-2h34.12l1.83-10.1h-24.78l-.2-2h25.28l1.7-9.56h-28.19l-.19-2h51.81l3.82-3.93 5.37 4.16c-.84 1.24-1.8 1.78-4 1.78h-25.11l-1.69 9.55H830l3.7-3.81 5.3 4c-.84 1.24-1.8 1.78-4 1.78h-22.53l-1.78 10.12h24.81zM789.21-.9h-6.27l-.19-2h16.75l1.76-10 7.25.62c-.29 1.23-1.33 1.77-4.21 2.16L803-2.9h9.55l3.71-3.78 5.09 4c-.84 1.23-1.72 1.77-3.91 1.77h-24.71L790 14.6c-.48 2.69-.48 2.69 2.1 2.69h12.68a25.81 25.81 0 0 0 4.18-.15c.86 0 2.81.46 2.66 1.31-.3 1.7-1.85 2.08-6.94 2.08h-13.07c-5.32 0-6.07-.62-5.14-5.93zm34.67 13.26a43.59 43.59 0 0 1-13.8 14l-.82-1.16C821.4 15.37 825.2 4 826.81-5.13l.87-4.94 3.93 2.16h16l2.56-2.54 4.38 4a5.84 5.84 0 0 1-3.25 1.15c-3.88 17.57-6.92 26.36-10.24 28.75a10.59 10.59 0 0 1-6.75 1.93c.31-1.78-.17-2.62-5.17-3.09l.26-1.46c1.94.08 5.75.23 7.31.23a3.64 3.64 0 0 0 2.63-.69c1.1-.93 2.42-3.55 3.92-8zm4.37-9.25a44.52 44.52 0 0 1-3.15 7.25h18.7c.61-2.08 1.26-4.47 2-7.25zm18-2c.53-2.16 1-4.47 1.62-7h-17.4a64.54 64.54 0 0 1-1.55 7zM909 10.82c.71-.92 2.82-1.39 4-1.39 3.91 0 6.92 3.78 6.62 5.47-.23 1.31-1.19 2.32-4.75 3-3.9.77-14.37 4.7-22.86 8.48a13.71 13.71 0 0 1-.22 1.69c-1.76 10-3.19 13.65-5.38 13.65-1.1 0-1.78-1-1.42-3.09.09-.46.26-1 .45-1.62a53.18 53.18 0 0 0 2.52-9c-7.85 3.7-16.31 8.63-17.57 15.8-.91 5.16 4.12 7.24 13.2 7.24 8.68 0 15.09-.38 16.77-1.92 4.81.23 7.33 1.07 7.12 2.23s-.69 1.7-2.8 2.16c-4.07.85-12.78 1-17.09 1-19.25 0-21.3-4.78-20.28-10.56 1.3-7.4 11.58-14.18 21-18.57.09-.54.11-1.08.22-1.7.68-6.55-2-8.32-5.11-8.32-7.75 0-18.81 9.94-27.23 19.5-2.25 2.54-3.31 3.7-4.25 3.7-.7 0-1.58-1.24-1.35-2.55.33-1.85 1.73-2.7 4.55-4.93 7.8-6.09 17.33-18 21.68-26.21-2.62.24-5.38.31-7.1.31-5.79 0-8.92-1.77-10.18-6.16l1.26-.93c1.76 3.32 4.66 4.63 10.22 4.63a64.5 64.5 0 0 0 7.36-.47c2-3.7 3-6.08 3.3-8.09s-1.82-2.54-3.78-2.54a9.28 9.28 0 0 0-1.51.15l-.14-.07a4.66 4.66 0 0 1 4.48-2.78c4 0 7.07 2.08 6.77 3.78s-1.4 1.69-2.43 3.54S883 0 882 1.8a100.17 100.17 0 0 0 15.4-3c2.06-.62 3.69-1.39 4.68-3 4.62 0 7 .39 6.73 2.24-.18 1-2 1.38-3.87 1.92a174.22 174.22 0 0 1-24.6 4.63A95 95 0 0 1 869.17 20l.36.16c6.6-5.48 11.55-6.94 14.68-6.94 4.47 0 8.39 2.16 8 10.33 9.62-4.4 20.56-8.25 20.83-9.79.21-1.24-1-2.08-2.77-2.08a6.73 6.73 0 0 0-1.18.07zM935.77 23.92c3.88-1.15 8.09-2.39 12.31-3.7l.18 1.24c-3.55 1.46-7.85 3.23-13 5.31l-4.35 24.67c-.6 3.39-1.9 5.85-7.5 6.55.51-2.85-1.75-3.39-6.86-3.7l.23-1.31h8.61c1.33 0 1.79-.39 2-1.62l4.08-23.12c-2.7 1.08-5.56 2.23-8.58 3.39a3.4 3.4 0 0 1-1.82 1.85l-2-4.93c2.69-.62 7.3-1.85 12.92-3.55l3.41-19.34h-11.28l-.2-2h11.9l2.92-16.57 7.09.62c-.37 1.23-.93 1.77-4.05 2.16l-2.44 13.78h3.76L946.63 0l5 3.85c-.84 1.24-1.72 1.78-3.91 1.78H939zm6.81-10.25C953.06 7.51 965.71-3.82 970.3-13l7.51 1.31c-.29.78-1.14 1.16-2.87 1.24 4.27 8.17 12.64 15.72 21.53 20.35l-.26 1a6.14 6.14 0 0 0-4.4 3.23C983.46 8.66 976.42-.2 973.53-9.6 967-.2 954.49 9.2 943 14.83zm35.64 19.81l2.41-2.54L985.7 35a8.22 8.22 0 0 1-3.7 1.56l-3.4 19.19a5.11 5.11 0 0 1-3.77 1.39l.7-3.93h-27.79l-.61 3.47c0 .08-.76 1.23-3.74 1.23L948 31.55l3.57 1.93zm4.94-8l3.63-3.7 5.09 3.93c-.92 1.24-1.8 1.78-4 1.78h-44.21l-.19-2h21.13l1.82-10.32h-12.76l-.19-2h13.3l1.69-9.56 6.79.54c-.28 1.16-1.14 1.62-3.72 2l-1.23 7h7.12l3.15-3.23 4.42 3.52c-.82 1.16-1.7 1.7-3.74 1.7H970l-1.82 10.32zM948.1 51.21h27.78l2.77-15.73h-27.78zM1003.44-1c-.15 2.16 1.73 3.93 4.31 3.93a44.32 44.32 0 0 0 6.32-.77c6.33-1.24 26.65-4.63 38.37-5.86a11.69 11.69 0 0 0 5.23-1.7c5.87 1.31 7.69 2.55 7.35 4.47-.16.93-1.14 1.16-2.55 1.16-1.8 0-4.32-.39-6.74-.39-7.91 0-20.66 8.41-26.37 15.5a38.68 38.68 0 0 0-8.11 17.57c-2.12 12 5.15 14.72 14.09 16a12.75 12.75 0 0 0 1.79.08c.94 0 2-.08 2.75-.08 2.51 0 4.66 2 4.37 3.63-.17 1-1.1 1.38-3 1.38-.71 0-1.63-.07-2.71-.15-19.8-2.24-23.08-8.48-20.83-21.27 3.13-17.73 20.9-28.83 29.23-33.07V-.8c-9.13.69-31.8 5-36.2 7.79a7.12 7.12 0 0 1-3.74 1.36c-3.29 0-6.23-4.16-5.85-6.32A4.28 4.28 0 0 1 1003-1zM1076.51 52.75c25.8-.77 38.4-6.09 40.48-17.88 1.78-10.1-4.93-15.11-12.91-15.11-7.12 0-14.5 1.93-23.49 7.63a31.91 31.91 0 0 0-4.67 3.39c-5.28 4.63-8.19 9.17-9.76 9.17-2 0-2.33-1.38-2.1-2.69.46-2.62 5.64-5.4 9.4-8.95 10-9.17 24.85-22 34-29.51 1.17-.93 2.29-1.93 2.45-2.86.14-.77-.38-.92-1.16-.92-3 0-14 2.7-20.19 4.85-2.17.78-3.2 2.16-4.92 2.16-3.29 0-5.59-3.77-5.2-6a6.09 6.09 0 0 1 2.12-3.62l.92.15a2.87 2.87 0 0 0-.22.77c-.39 2.24 1.39 3.7 4 3.7S1102-5.52 1106-7.22c1.27-.54 3.1-1.61 3.73-1.61 3.29 0 6.82 3.46 6.4 5.85-.27 1.54-2.26 1.31-4.92 3.09-6.83 4.54-20.49 15.41-27.15 22.58l.05.15A48.42 48.42 0 0 1 1105 17.6c11.9 0 18 7.17 16.2 17.34-2.41 13.65-14.09 19.5-44.9 19.81zM1147.54 34.71a9.5 9.5 0 0 1 9.7 11.56 14.47 14.47 0 0 1-13.78 11.56 9.49 9.49 0 0 1-9.7-11.56 14.48 14.48 0 0 1 13.78-11.56zm7.19 11.56a7.48 7.48 0 0 0-7.63-9.09 11.44 11.44 0 0 0-10.84 9.09 7.5 7.5 0 0 0 7.64 9.1 11.42 11.42 0 0 0 10.83-9.1z"/>
    </g>
    <g fill="#f10040">
        <path d="M844.5 871.15l4 4.7c-.64.54-1.6.62-3.1.69a64 64 0 0 1-7.33 7.4l-1.14-.62a85.21 85.21 0 0 0 4.38-7.55h-31.67l3.73 1c-.37.77-1.44 1.08-3.47 1.08-1.83 1.47-3.89 2.93-6.19 4.47h23.48l2.82-2.23 3.82 4.08a6.75 6.75 0 0 1-3.68.85c-14.61 13.64-28.52 19.73-53.82 23l-.19-1.62c21.7-3.62 36.46-9.25 49.52-22h-25.12c-1.76 1.08-3.58 2.08-5.49 3.16 9.6 1.92 12.16 6 11.77 8.24a1.74 1.74 0 0 1-1.76 1.55 2.42 2.42 0 0 1-1-.24c-1.8-3.08-6.78-6.78-10.92-8.63a83.36 83.36 0 0 1-13 5.17l-.58-1.16c10.2-3.7 21.16-10.79 27.12-16.65H785c-1.17 4.86-4.83 8.33-8.12 8.33-1.4 0-2-.7-1.81-1.7a4.25 4.25 0 0 1 2.16-2.47 13.13 13.13 0 0 0 6.74-9.4h1.49a12.34 12.34 0 0 1-.1 3.24h56.11zm-41.84-24.59H782l-.12-2H803l1.37-7.79 6.57.46c-.28 1.16-1 1.55-3.45 1.86l-1 5.47h22.15l1.37-7.79 6.57.46c-.28 1.16-1 1.47-3.44 1.78l-1 5.55h12l3.85-4.09 5.65 4.4c-.91 1.15-1.87 1.69-4.06 1.69h-17.73l-.89 5c-.08.46-1.24 1.31-3.14 1.39h9.94l2.39-2.47 5.09 4a8.59 8.59 0 0 1-3.72 1.54l-2.24 12.72a5.08 5.08 0 0 1-3.76 1.38l.43-2.46h-44.53l-.35 2c0 .08-.91 1.16-3.73 1.16l3.49-19.82 3.65 1.93h7zm-9 8.4l-1.89 10.72H804l1.87-10.68zm12.52-8.4l-.95 5.4c-.06.3-.84.77-1.67 1h23.64l1.13-6.4zm3.21 8.4l-1.89 10.72h12.6L822 855zm28.8 0h-12.68l-1.88 10.72h12.67zM908.5 860.82c.71-.93 2.83-1.39 4-1.39 3.92 0 6.93 3.78 6.63 5.47-.23 1.31-1.19 2.32-4.76 3-3.89.77-14.36 4.7-22.86 8.48a12 12 0 0 1-.22 1.69c-1.75 9.95-3.19 13.65-5.38 13.65-1.09 0-1.78-1-1.41-3.09a14.54 14.54 0 0 1 .44-1.62 52.36 52.36 0 0 0 2.53-9c-7.85 3.7-16.31 8.63-17.58 15.8-.91 5.16 4.13 7.24 13.2 7.24 8.69 0 15.1-.38 16.78-1.92 4.81.23 7.32 1.07 7.12 2.23s-.69 1.7-2.81 2.16c-4.06.85-12.77 1-17.08 1-19.25 0-21.31-4.78-20.29-10.56 1.31-7.4 11.58-14.18 21-18.57.1-.54.12-1.08.23-1.7.68-6.55-2-8.32-5.11-8.32-7.75 0-18.82 9.94-27.23 19.5-2.25 2.54-3.31 3.7-4.25 3.7-.71 0-1.59-1.24-1.35-2.55.32-1.85 1.72-2.7 4.54-4.93 7.81-6.09 17.34-18 21.69-26.21-2.63.24-5.38.31-7.1.31-5.79 0-8.92-1.77-10.19-6.16l1.26-.93c1.77 3.32 4.67 4.63 10.22 4.63a64.36 64.36 0 0 0 7.36-.47c2-3.7 3-6.08 3.31-8.09s-1.82-2.54-3.78-2.54a9.06 9.06 0 0 0-1.51.15l-.15-.07a4.67 4.67 0 0 1 4.48-2.78c4 0 7.07 2.08 6.77 3.78s-1.39 1.69-2.42 3.54-2.08 3.78-3.09 5.55a99.22 99.22 0 0 0 15.4-3c2.06-.62 3.68-1.39 4.67-3 4.62 0 7.06.39 6.73 2.24-.17 1-2 1.38-3.86 1.92a175.8 175.8 0 0 1-24.61 4.63A93.83 93.83 0 0 1 868.69 870l.37.15c6.6-5.47 11.55-6.93 14.68-6.93 4.46 0 8.39 2.16 8 10.33 9.62-4.4 20.55-8.25 20.82-9.79.22-1.24-1-2.08-2.76-2.08a6.91 6.91 0 0 0-1.19.07zM984 892l-1.88 10.25c1.92.61 2.21.77 2.1 1.38-.27 1.55-2.44 2.32-8.31 2.32h-15.77c-5.56 0-6.44-.77-5.67-5.17l3.25-18.42h-12.21a7.62 7.62 0 0 1-2.18.39c-3.4 11.33-11.22 21-31.4 25.43l-.54-1.38c17.35-4.32 25-13.26 28.33-24.44h-7.9l-.65 3.7s-.47 1.31-3.76 1.31l8.46-47.94 3.63 2h38.67l2.49-2.62 5 4.16a8.29 8.29 0 0 1-3.71 1.54l-7.14 40.46a4.76 4.76 0 0 1-3.79 1.54l.73-4.16h-9.15l-1.38.23-3.22 18.24c-.34 1.93-.27 2 2.78 2h15.81c1.41 0 2-.07 2.72-1.23a86 86 0 0 0 3.89-9.63zm-51.87-11.64h39.91l2-11.18h-39.9zm42.24-13.18l1.94-11h-39.87l-2 11zm4.18-23.74h-39.87l-1.89 10.71h39.92zM1004.67 902.75c25.8-.77 38.4-6.09 40.48-17.88 1.78-10.1-4.93-15.11-12.91-15.11-7.12 0-14.5 1.93-23.49 7.63a31.91 31.91 0 0 0-4.67 3.39c-5.28 4.63-8.19 9.17-9.76 9.17-2 0-2.33-1.38-2.1-2.69.46-2.63 5.64-5.4 9.4-9 10-9.17 24.85-22 34-29.51 1.17-.93 2.29-1.93 2.45-2.86.14-.77-.38-.92-1.16-.92-3.05 0-14 2.7-20.19 4.86-2.17.77-3.2 2.15-4.92 2.15-3.29 0-5.59-3.77-5.2-6a6.09 6.09 0 0 1 2.12-3.62l.92.15a2.87 2.87 0 0 0-.22.77c-.39 2.24 1.39 3.7 4.05 3.7s16.72-2.54 20.7-4.24c1.27-.54 3.1-1.61 3.73-1.61 3.29 0 6.82 3.46 6.4 5.85-.27 1.54-2.26 1.31-4.92 3.09-6.83 4.54-20.49 15.41-27.15 22.58v.15a48.42 48.42 0 0 1 20.88-5.24c11.9 0 18 7.17 16.2 17.34-2.41 13.65-14.09 19.5-44.9 19.81zM1075.7 884.71c6.5 0 10.83 5.17 9.7 11.56a14.47 14.47 0 0 1-13.78 11.56 9.49 9.49 0 0 1-9.7-11.56 14.48 14.48 0 0 1 13.78-11.56zm7.2 11.56a7.49 7.49 0 0 0-7.64-9.09 11.42 11.42 0 0 0-10.83 9.09 7.49 7.49 0 0 0 7.63 9.1 11.44 11.44 0 0 0 10.84-9.1z"/>
    </g>
    <g fill="#f10040">
        <path d="M805.91 284.56l4.22 4.94c-.65.54-1.6.61-3.1.69a48.79 48.79 0 0 1-7.82 7.09l-1.07-.61a64.22 64.22 0 0 0 4.42-7.33h-54.7c-1.44 6.4-6.33 9.25-9.23 9.25-2.19 0-2-1.31-1.89-1.69a4.27 4.27 0 0 1 2.24-2.47 13.1 13.1 0 0 0 7.73-10.1l1.5-.07a26.34 26.34 0 0 1 0 3.08h24.42l2.61-14.8 7.24.62c-.3 1.31-1.33 1.77-4.21 2.16l-2.12 12h9a144.16 144.16 0 0 0 12.45-14.26l5.34 3.47a2.15 2.15 0 0 1-1.6.62 5 5 0 0 1-1.59-.31 105.55 105.55 0 0 1-12.17 10.48h15.1zm-15.61 34.38l2.47-2.47 5 4.09a7.75 7.75 0 0 1-3.7 1.46l-2.15 12.18c-.55 3.16-1.63 5.24-8.19 6.09.62-3.55-3.26-3.7-7.76-3.93l.2-1.16h10.1c1.48 0 2-.15 2.14-1.08l2.33-13.18h-20.52l-3.8 21.58c0 .16-.73 1.47-3.78 1.47l4.06-23.05h-20.35l-3.19 18.12c0 .07-.75 1.15-3.73 1.15l4.09-23.2 3.66 1.93h19.88l1.44-8.17h-14.64l-.38 2.16c0 .08-.91 1.15-3.73 1.15l3.44-19.5 3.58 1.93h31.77l2.29-2.31 4.73 3.78a7.18 7.18 0 0 1-3.3 1.38L790 312a5.11 5.11 0 0 1-3.77 1.39l.46-2.62h-13.3L772 311l-1.4 7.94zM753 273.08c8.16 3 10.08 7.63 9.58 10.48a2.76 2.76 0 0 1-2.4 2.55 2 2 0 0 1-1.46-.62c0-4-3.26-9-6.48-11.64zm1.22 35.69h32.87l1.81-10.26H756zM827.52 317.63l2.41-2.54 5.07 4.08a8.22 8.22 0 0 1-3.72 1.54L828 339.59a5 5 0 0 1-3.76 1.39l.74-4.24h-11.71l-1 5.94c0 .08-.77 1.23-3.74 1.23l5-28.21 3.58 1.93zm-13.89 17.11h11.66l2.71-15.11h-11.71zm22-26.74c-.85 1.23-1.72 1.77-3.84 1.77h-17.13l-.19-2h13.3l3.25-3.31zm1.61-23.82l5.09 4c-.84 1.23-1.8 1.77-3.91 1.77H815l-.2-2h18.87zm-7.72 13.64l3.24-3.31 4.62 3.54c-.84 1.24-1.72 1.78-3.83 1.78h-17.13l-.2-2zm11.64-19.42c-.92 1.23-1.8 1.77-3.91 1.77h-17.44l-.2-2h13l3.55-3.7zm10.57 54.1h-12.6l-1 5.86s-.53 1.23-3.74 1.23l5.8-32.91 3.58 1.93h11.42l2.41-2.54 5 4.08a7.69 7.69 0 0 1-3.71 1.54l-4.07 23.05c0 .23-1.35 1.46-3.7 1.46zm28.64-4.85L877 339.13c.9 2 1.24 3.16 1.12 3.86a1.75 1.75 0 0 1-1.77 1.15c-3.44 0-7.6-6.16-9.2-15.72a64.41 64.41 0 0 1-21.5 15.41l-.49-1.23a66.16 66.16 0 0 0 21.44-18.19 109.21 109.21 0 0 1 .34-22.35h-29.79l-.19-2h16.59a134 134 0 0 0 5.6-13.11l6.2 1.7c-.37.77-1.22 1.16-2.93 1.08a93.89 93.89 0 0 1-6.91 10.33h11.66c.92-8.33 2.37-17.42 4-26.9l6.58.85c-.33 1-1 1.31-3.26 1.62-.61 3-1.14 6-1.67 9-.92 5.24-1.76 10.41-2.33 15.42h5.8l3.82-3.93 5.37 4.16c-.84 1.23-1.8 1.77-4 1.77h-11.14a104 104 0 0 0-.71 18.19 78.58 78.58 0 0 0 7.17-13.57l6.34 1.78c-.48.92-1.26 1.38-3.28 1.31a78.57 78.57 0 0 1-9.75 15.34c1.06 8.17 4 12.1 4.28 12.1.79 0 4.11-7.33 5.08-9.72zm-40.87 2.85h12.6l1.6-9.09h-12.6zm16.1-19.88H843l-1.55 8.78h12.6zm-13.71-25.21l-.19-2h10.56l1.65-9.33 6.79.54c-.36 1.16-1.15 1.62-3.71 1.93l-1.21 6.86h4.39l3.33-3.41 4.69 3.62c-.85 1.23-1.73 1.77-3.84 1.77zm3.48 2c3 3.31 3.73 6.39 3.35 8.55-.34 1.93-1.58 3.16-2.68 3.16a1.56 1.56 0 0 1-1.41-.85 29.5 29.5 0 0 0-.34-10.48zm33.25-9.71c6.86 3.69 8.46 7.93 8 10.55-.28 1.62-1.32 2.62-2.42 2.62a2.28 2.28 0 0 1-1.52-.69c-.13-3.7-2.58-8.86-4.95-11.87zM944.4 296.82c.71-.92 2.82-1.39 4-1.39 3.91 0 6.92 3.78 6.62 5.47-.23 1.31-1.19 2.32-4.75 3-3.9.77-14.37 4.7-22.86 8.48a13.71 13.71 0 0 1-.22 1.69c-1.76 9.95-3.19 13.65-5.38 13.65-1.1 0-1.78-1-1.42-3.09.09-.46.26-1 .44-1.62a52.36 52.36 0 0 0 2.53-9c-7.85 3.7-16.31 8.63-17.57 15.8-.91 5.16 4.12 7.24 13.2 7.24 8.68 0 15.09-.38 16.77-1.92 4.81.23 7.33 1.07 7.12 2.23s-.69 1.7-2.8 2.16c-4.07.85-12.78 1-17.09 1-19.25 0-21.3-4.78-20.28-10.56 1.3-7.4 11.58-14.18 21-18.57.09-.54.11-1.08.22-1.7.68-6.55-2-8.32-5.11-8.32-7.75 0-18.81 9.94-27.23 19.5-2.25 2.54-3.31 3.7-4.25 3.7-.7 0-1.58-1.24-1.35-2.55.33-1.85 1.73-2.7 4.55-4.93 7.8-6.09 17.33-18 21.68-26.21-2.62.24-5.38.31-7.1.31-5.79 0-8.92-1.77-10.18-6.16l1.26-.93c1.76 3.32 4.66 4.63 10.22 4.63a64.5 64.5 0 0 0 7.36-.47c2-3.7 2.95-6.08 3.3-8.09s-1.82-2.54-3.78-2.54a9.28 9.28 0 0 0-1.51.15l-.14-.07a4.66 4.66 0 0 1 4.48-2.78c4 0 7.07 2.08 6.77 3.78s-1.4 1.69-2.43 3.54-2.07 3.78-3.09 5.55a99 99 0 0 0 15.4-3c2.06-.62 3.69-1.39 4.68-3 4.62 0 7 .39 6.73 2.24-.18 1-2.05 1.38-3.87 1.92a174.22 174.22 0 0 1-24.6 4.63A95 95 0 0 1 904.59 306l.36.16c6.6-5.48 11.55-6.94 14.68-6.94 4.47 0 8.39 2.16 8 10.33 9.62-4.4 20.56-8.25 20.83-9.79.21-1.24-1-2.08-2.77-2.08a6.73 6.73 0 0 0-1.18.07zM988.75 320.1c-.84 1.23-1.72 1.77-3.83 1.77h-12.6c-.47 1.31-.94 2.62-1.48 3.93 8.34 3.31 10.37 7.78 9.9 10.4a2.41 2.41 0 0 1-2.19 2.24 2.12 2.12 0 0 1-1.39-.54c-.73-3.39-3.87-7.78-7-10.64a33.72 33.72 0 0 1-17.08 17l-.88-1.23c9.17-4.94 13.88-12.57 16.72-21.12h-14.21l-.2-2h15.11c1-3.46 1.78-7 2.48-10.55h-7a38.37 38.37 0 0 1-7.8 9.63l-1.12-.77c3.62-4.09 7.24-11.33 9.73-18.81l5.63 1.39c-.38.85-1 1.23-2.74 1.31-.78 1.77-1.64 3.55-2.56 5.24h14.4l3.24-3.31 4.7 3.54c-.84 1.24-1.8 1.78-3.91 1.78h-9.16c-.72 3.62-1.5 7.16-2.49 10.55h7.36l3.45-3.62zm1.62-25.59c1.86.54 2.14.69 2 1.31-.29 1.62-2.36 2.23-8.23 2.23h-15.53c-5.64 0-6.42-.84-5.68-5.08l3.5-19.81 6 .61c-.25 1-.87 1.39-2.87 1.62l-1.56 8.94a107.85 107.85 0 0 0 19.63-7.93l4.15 3.54a2 2 0 0 1-1.5.54 6.3 6.3 0 0 1-1.89-.39 137.16 137.16 0 0 1-20.71 6l-1.24 6.91c-.34 1.93-.27 2 2.78 2h15.49c1.26 0 2-.08 2.66-.85s1.94-3.47 3.44-6.63h.78zm17.52 24.89l-3.44 19.5a36.42 36.42 0 0 0 6.1.46c3.06 0 9.86 0 13.4-.07l-.2 1.15a3.21 3.21 0 0 0-2.74 2.62h-11.5c-10.1 0-15.55-3.23-17.09-16.26-3.8 7.79-8.88 13.95-15.46 17.57l-1-1c9-6 15.13-18.34 18-33.37l6.21.77c-.26 1-.95 1.39-2.61 1.46a76.3 76.3 0 0 1-3.85 11.77c.94 7.94 3.37 11.95 7.41 13.87l6.42-36.38h-16.75l-.28-2h33.42l3.05-2.62 4 4.7a5.82 5.82 0 0 1-3.1.69 52.32 52.32 0 0 1-9.8 9.87l-1.05-.69a70.31 70.31 0 0 0 6.68-9.95h-12.67l-2.82 16h9.08l3.63-3.7 4.94 3.93c-.84 1.23-1.8 1.77-3.91 1.77zm-7.1-34.3a33.79 33.79 0 0 1 10.5 3.94 81 81 0 0 0 13.1-10.41h-28.56l-.28-2h29.74l3.3-2.7 4.18 4.7c-.73.54-1.76.62-3.49.69-3.93 3.63-10.86 7.87-16.67 10.64 3.18 2.39 4.08 4.86 3.78 6.55a2.19 2.19 0 0 1-2.08 2 2.8 2.8 0 0 1-1.26-.38c-1.74-4.32-7.86-9.56-12.83-12zM1056.29 316.7c3.9-2.15 6.93-2.92 9.36-2.92 4.38 0 6.26 2.69 5 9.55-.11.62-.83 3.78-1 4.55-.93 5.24.25 7 6.59 7 5.71 0 6.82-.07 8.19-.3a18.32 18.32 0 0 1 3-.47c.47 0 3.59.93 3.24 2.93-.27 1.54-4.2 1.62-10.23 1.62-8.45 0-15.84-.69-13.9-11.71.11-.62.78-3.55.91-4.24 1-5.78-.61-6.79-3.74-6.79-3.68 0-14.27 4.63-26.48 18.81-2.16 2.47-2.83 3.62-4.24 3.62a1.85 1.85 0 0 1-1.92-2.39c.62-3.54 3.85-5 7.7-8.17 9.39-7.55 37.2-31.21 37.31-31.83 0-.07-.05-.15-.37-.15-.47 0-19.94 3.47-24.39 5.62-1.38.7-2.06 1.47-2.92 1.47-2.19 0-4.73-2.93-4.22-5.78.31-1.77 2.66-4 4.47-4.93l.72.77a6.24 6.24 0 0 0-1.94 3c-.19 1.08.52 1.93 2.79 1.93 3.68 0 19.8-3.08 25.48-4.24 1.46-.31 2.64-2.08 3.58-2.08 1.8 0 5.05 2.85 4.82 4.16-.14.77-2 1.16-3.9 1.7-2.8.77-18.36 14-24.28 19.19zm16.44-34.22c-1.67.16-3.25.23-4.73.23-6.89 0-11.31-1.54-12.53-5.31l1.76-1.08c1.34 2.16 4.66 3.31 9.82 3.31 4 0 8-.69 10.14-.69 4.15 0 5.62 2.31 5.4 3.54-.25 1.47-3.33 1.16-6.12 1.47-4.34.61-10 2.7-14.89 4.55l-.23-1.39c3-1.08 8.48-3.24 11.34-4.4zM1117.88 320.71a9.5 9.5 0 0 1 9.7 11.56 14.47 14.47 0 0 1-13.78 11.56 9.49 9.49 0 0 1-9.7-11.56 14.48 14.48 0 0 1 13.78-11.56zm7.19 11.56a7.48 7.48 0 0 0-7.63-9.09 11.44 11.44 0 0 0-10.84 9.09 7.5 7.5 0 0 0 7.64 9.1 11.42 11.42 0 0 0 10.83-9.1z"/>
    </g>
    <g fill="#f10040">
        <path d="M821.7 454.43l13-3.16.08 1.31c-6.35 2.23-15.12 5.39-26.73 9.09a3.53 3.53 0 0 1-1.89 1.85l-2.16-5.24c1.14-.23 2.67-.46 4.38-.85l4.73-26.82 6.79.54c-.28 1.16-1.29 1.54-3.71 1.93l-4.15 23.58c1.8-.46 3.84-.92 5.95-1.38l6.11-34.61h-5.56l-.63 3.54s-.7 1.31-3.75 1.31l4.74-26.89 4.1 2.08h12.21l2.4-2.55 5.07 4.09a8.13 8.13 0 0 1-3.71 1.54l-3.22 18.27a5.26 5.26 0 0 1-3.77 1.38l.49-2.77h-4.85l-2.57 14.57h3.13l3.6-4 4.81 4.24c-.92 1.23-1.8 1.77-3.91 1.77h-8zm-2.77-35.76h13.93l2.82-16h-13.93zm11.85 22c3.21-.93 10.22-3.39 17.49-6 .41-1.85.8-3.63 1.14-5.55l6-34.15 6.92.7c-.38 1.23-1.24 1.69-3.86 1.93l-5.55 31.44c-2.93 16.19-9.62 28.83-27.76 37.15l-.8-1.23c13.42-6.86 20-16.19 23.42-28.52-3.33 2-7.61 4.55-12.9 7.48a3.08 3.08 0 0 1-1.67 1.92zm9.72-31.6c6.06 3.77 7.46 8.25 6.92 11.33-.39 2.23-1.76 3.77-3.17 3.77a2.2 2.2 0 0 1-1.64-.92c1.1-4.47-.62-10.25-3.08-13.56zm36 42.16l-1.62 9.63c1.69.62 2 .77 2 1.31-.3 1.7-2.15 2.39-7.31 2.39h-8.77c-4.54 0-5.15-1.39-4.2-6.78l11-62.59 7 .7c-.31 1.31-1.08 1.7-4 2.08l-6.31 35.76c10.65 2.62 13.34 7.79 12.84 10.64-.22 1.23-1 2.08-2 2.08a2.78 2.78 0 0 1-1.26-.39c-.95-3.93-5.57-8.4-9.81-10.94l-4 22.74c-.57 3.23-.44 3.39 1.28 3.39h8.45a2.76 2.76 0 0 0 2.11-.85c.59-.69 2.36-5.4 3.73-9.17zm7.33-40.23a1.5 1.5 0 0 1-1.29.61 3.25 3.25 0 0 1-.84-.08 135.26 135.26 0 0 1-12.88 13.11l-.84-.54a165.2 165.2 0 0 0 10.87-16zM905.59 399.55a4.61 4.61 0 0 1 4.33-2.31c2.34 0 6.29 2.47 5.9 4.7-.21 1.16-1.26 2.24-1.9 4.09-.48 1.38-1 3.08-1.6 5.08 1.86.54 3.95 2 3.71 3.39-.34 1.93-3.28 2.16-6.31 6-.42 1.55-.72 2.78-1.07 4.32 10.62-7.4 22.35-12.25 28.61-12.25 13.07 0 17.11 6.39 14.5 21.19a42.72 42.72 0 0 1-6 15.42c1.41 1.31 3.15 2.54 4 3.85.9 1.54 1.66 3 1.36 4.7a2.78 2.78 0 0 1-2.63 2.08c-.86 0-1.55-.54-2-1.69a18.79 18.79 0 0 0-3.54-5.24 23.37 23.37 0 0 1-17.38 8c-9.39 0-11.71-5-10.86-9.86s6.24-8.33 13.91-8.33a25.94 25.94 0 0 1 14.07 4.55 41 41 0 0 0 5-13.1c2.1-11.87.93-19-11.35-19-7.28 0-17.39 5.39-28.43 12.95-.51 2.47-1 4.93-1.43 7.24-2.69 15.26-3.64 20.66-3.88 24.67l-.11.61a4 4 0 0 1-3.36 3.55c-1.57 0-1.85-1.08-1.47-3.24.74-4.16-1.24-8-5.31-13.79l1.18-.93c2.69 2.93 5.53 5.47 5.84 5.47.55 0 .7-.38 1.13-2.85.5-2.85 2.07-10.4 3.84-18.19-4.1 3.24-7.62 6.78-16 15.34-1.44 1.46-1.87 2.62-3 2.62-1.8 0-2.25-1.46-2-2.85a4.71 4.71 0 0 1 1.77-2.93c10.76-8.25 18.06-15 20.94-19.81.53-2.54 1.12-5 1.59-7.24a88.86 88.86 0 0 0-9.12 2.93c-1.6.61-2.91 1.84-4 1.84h-.23c-2.82 0-4.53-3.15-4.15-5.31a6 6 0 0 1 1.63-2.62h.63a3.14 3.14 0 0 0 3.07 3.46c1.72 0 11.12-1.84 12.87-3.31 1-4.08 1.72-7.09 2-7.94.08-.46.22-.85.29-1.23.31-1.77.43-3.78-3.71-3.78a4.27 4.27 0 0 0-1 .08zm34.76 51c-3.44-3.16-8.43-5.47-12.34-5.47-5.8 0-9.84 2.55-10.4 5.71-.9 5.08 2.69 6.93 8.09 6.93a18.69 18.69 0 0 0 14.65-7.15zM971.35 460.75c25.81-.77 38.4-6.09 40.48-17.88 1.78-10.1-4.92-15.11-12.91-15.11-7.12 0-14.5 1.93-23.49 7.63a31.91 31.91 0 0 0-4.67 3.39c-5.27 4.63-8.19 9.17-9.76 9.17-2 0-2.33-1.38-2.1-2.69.46-2.62 5.64-5.4 9.4-8.95 10-9.17 24.85-22 34-29.51 1.18-.93 2.29-1.93 2.46-2.86.13-.77-.39-.92-1.17-.92-3.05 0-14 2.7-20.19 4.86-2.17.77-3.2 2.15-4.92 2.15-3.28 0-5.59-3.77-5.2-6a6.1 6.1 0 0 1 2.13-3.62l.91.15a3.21 3.21 0 0 0-.21.77c-.4 2.24 1.38 3.7 4 3.7s16.72-2.54 20.7-4.24c1.27-.54 3.1-1.61 3.73-1.61 3.29 0 6.83 3.46 6.4 5.85-.27 1.54-2.26 1.31-4.92 3.09-6.83 4.54-20.49 15.41-27.15 22.58l.05.15a48.42 48.42 0 0 1 20.88-5.24c11.9 0 18 7.17 16.2 17.34-2.41 13.65-14.09 19.5-44.9 19.81zM1042.38 442.71c6.5 0 10.83 5.17 9.7 11.56a14.47 14.47 0 0 1-13.78 11.56c-6.49 0-10.82-5.16-9.7-11.56a14.48 14.48 0 0 1 13.78-11.56zm7.2 11.56a7.49 7.49 0 0 0-7.63-9.09 11.42 11.42 0 0 0-10.84 9.09 7.49 7.49 0 0 0 7.63 9.1 11.44 11.44 0 0 0 10.84-9.1z"/>
    </g>
</svg>
